<svg viewBox="0 0 1600 300" xmlns="http://www.w3.org/2000/svg" fill="none" stroke="currentColor" stroke-width="2" stroke-linecap="round" stroke-linejoin="round" aria-label="Traço de Encantado/RS — Cristo Protetor, igreja, araucárias e distribuição Ciamed">
  <!-- ground -->
  <path d="M0 250 H1600" opacity=".45"/>
  <!-- background hills -->
  <path d="M0 205 Q120 170 260 196 T520 190 Q620 176 720 152 Q820 176 960 196 T1240 194 Q1360 172 1480 196 L1600 200" opacity=".5"/>

  <!-- araucaria (esq) -->
  <path d="M92 250 V150 M66 150 Q92 138 118 150 M72 138 Q92 128 112 138 M78 128 Q92 120 106 128 M92 120 V112"/>
  <!-- pinheiro -->
  <path d="M182 250 V200 M158 210 L182 176 L206 210 M166 196 L182 172 L198 196"/>

  <!-- igreja matriz -->
  <path d="M270 250 V172 H332 V250"/>
  <path d="M264 172 L301 148 L338 172"/>
  <path d="M296 172 V112 H316 V172"/>
  <path d="M294 112 L306 92 L318 112"/>
  <path d="M306 92 V80 M300 85 H312"/>
  <circle cx="301" cy="198" r="8"/>

  <!-- casario colonial -->
  <path d="M372 250 V214 H428 V250 M366 214 L400 190 L434 214 M388 250 V226 H412 V250"/>
  <path d="M448 250 V224 H500 V250 M442 224 L474 202 L508 224"/>

  <!-- morro + Cristo Protetor -->
  <path d="M540 250 Q740 96 940 250"/>
  <!-- base/mirante -->
  <path d="M723 173 L761 173 L757 154 L727 154 Z M735 173 V154 M749 173 V154"/>
  <!-- manto -->
  <path d="M729 154 L737 90 M755 154 L747 90 M729 154 H755 M742 154 V84"/>
  <!-- cabeca + pescoco -->
  <circle cx="742" cy="78" r="6.5"/>
  <path d="M742 84.5 V90"/>
  <!-- bracos abertos + manto caindo -->
  <path d="M742 95 L706 105 M742 95 L778 105 M716 103 L731 150 M768 103 L753 150"/>

  <!-- centro de distribuicao Ciamed -->
  <path d="M898 250 V98 H966 V250"/>
  <path d="M898 122 H966 M898 152 H966 M898 182 H966 M898 212 H966 M921 98 V250 M944 98 V250"/>
  <path d="M932 98 V82"/>

  <!-- predio com cruz de farmacia -->
  <path d="M998 250 V156 H1046 V250"/>
  <path d="M1016 178 H1028 M1022 172 V184"/>

  <!-- caminhao de entrega -->
  <path d="M1082 250 V216 H1138 V250"/>
  <path d="M1138 226 H1158 L1166 238 V250 H1138"/>
  <circle cx="1100" cy="252" r="7"/>
  <circle cx="1150" cy="252" r="7"/>
  <path d="M1104 232 H1116 M1110 226 V238" opacity=".85"/>

  <!-- ponte sobre o Taquari -->
  <path d="M1180 236 H1338 M1180 236 V224 M1338 236 V224"/>
  <path d="M1192 236 Q1218 266 1244 236 M1256 236 Q1282 266 1308 236"/>
  <path d="M1176 262 q12 -7 24 0 t24 0 t24 0 t24 0 t24 0 t24 0" opacity=".5"/>

  <!-- araucaria + pinheiro (dir) -->
  <path d="M1402 250 V150 M1376 150 Q1402 138 1428 150 M1382 138 Q1402 128 1422 138 M1388 128 Q1402 120 1416 128 M1402 120 V112"/>
  <path d="M1486 250 V196 M1462 206 L1486 172 L1510 206 M1470 192 L1486 168 L1502 192"/>
</svg>
