<svg xmlns="http://www.w3.org/2000/svg" xmlns:xlink="http://www.w3.org/1999/xlink" width="1920" zoomAndPan="magnify" viewBox="0 0 1440 809.999993" height="1080" preserveAspectRatio="xMidYMid meet" version="1.0"><defs><filter x="0%" y="0%" width="100%" height="100%" id="49fadbefdc"><feColorMatrix values="0 0 0 0 1 0 0 0 0 1 0 0 0 0 1 0 0 0 1 0" color-interpolation-filters="sRGB"/></filter><g/><clipPath id="3cf4ea8928"><rect x="0" width="473" y="0" height="111"/></clipPath><clipPath id="c14dd33148"><rect x="0" width="97" y="0" height="111"/></clipPath><clipPath id="83235372f5"><path d="M 2.378906 2.082031 L 984.441406 2.082031 L 984.441406 694.613281 L 2.378906 694.613281 Z M 2.378906 2.082031 " clip-rule="nonzero"/></clipPath><clipPath id="984a9022c1"><path d="M 0.378906 0.0820312 L 982.441406 0.0820312 L 982.441406 692.613281 L 0.378906 692.613281 Z M 0.378906 0.0820312 " clip-rule="nonzero"/></clipPath><clipPath id="82ed6c431d"><path d="M 0.378906 0.0820312 L 982.441406 0.0820312 L 982.441406 692.613281 L 0.378906 692.613281 Z M 0.378906 0.0820312 " clip-rule="nonzero"/></clipPath><clipPath id="630ece0a35"><rect x="0" width="983" y="0" height="693"/></clipPath><clipPath id="db81db6608"><rect x="0" width="983" y="0" height="693"/></clipPath><mask id="a0e2640926"><g filter="url(#49fadbefdc)"><g transform="matrix(1, 0, 0, 1, 0, 0.000000000000042633)"><g clip-path="url(#db81db6608)"><g clip-path="url(#82ed6c431d)"><g transform="matrix(1, 0, 0, 1, 0, 0.000000000000042633)"><g clip-path="url(#630ece0a35)"><g fill="#000000" fill-opacity="1"><g transform="translate(283.390969, 373.084519)"><g><path d="M 75.578125 -76.6875 C 75.578125 -76.132812 75.359375 -75.453125 74.921875 -74.640625 C 74.484375 -73.835938 74.035156 -73.125 73.578125 -72.5 C 73.117188 -71.882812 72.816406 -71.503906 72.671875 -71.359375 C 73.503906 -70.023438 74.101562 -68.703125 74.46875 -67.390625 C 74.84375 -66.078125 75.03125 -64.820312 75.03125 -63.625 C 75.03125 -61.3125 74.476562 -59.234375 73.375 -57.390625 C 72.269531 -55.546875 70.921875 -54.101562 69.328125 -53.0625 C 67.734375 -52.03125 66.203125 -51.515625 64.734375 -51.515625 C 63.441406 -51.515625 62.332031 -52 61.40625 -52.96875 C 60.488281 -53.9375 60.03125 -55.484375 60.03125 -57.609375 C 60.03125 -58.753906 60.203125 -60.109375 60.546875 -61.671875 C 60.890625 -63.242188 61.429688 -65 62.171875 -66.9375 L 62.515625 -67.765625 C 61.035156 -68.367188 59.363281 -68.773438 57.5 -68.984375 C 55.632812 -69.191406 53.960938 -69.296875 52.484375 -69.296875 C 48.609375 -69.296875 44.734375 -68.40625 40.859375 -66.625 C 36.992188 -64.851562 33.320312 -62.363281 29.84375 -59.15625 C 26.363281 -55.957031 23.257812 -52.175781 20.53125 -47.8125 C 17.8125 -43.457031 15.691406 -38.675781 14.171875 -33.46875 C 13.710938 -31.8125 13.378906 -30.222656 13.171875 -28.703125 C 12.960938 -27.179688 12.859375 -25.703125 12.859375 -24.265625 C 12.859375 -20.816406 13.503906 -17.640625 14.796875 -14.734375 C 16.085938 -11.828125 18.101562 -9.5 20.84375 -7.75 C 23.59375 -6 27.132812 -5.125 31.46875 -5.125 C 35.195312 -5.125 38.457031 -5.441406 41.25 -6.078125 C 44.039062 -6.722656 46.597656 -7.691406 48.921875 -8.984375 C 51.253906 -10.273438 53.570312 -11.863281 55.875 -13.75 C 58.175781 -15.644531 60.734375 -17.835938 63.546875 -20.328125 C 65.253906 -21.847656 66.5 -22.609375 67.28125 -22.609375 C 67.925781 -22.609375 68.25 -22.007812 68.25 -20.8125 C 68.25 -19.570312 67.726562 -17.984375 66.6875 -16.046875 C 65.65625 -14.109375 64.101562 -12.066406 62.03125 -9.921875 C 59.957031 -7.773438 57.351562 -5.742188 54.21875 -3.828125 C 51.082031 -1.921875 47.425781 -0.367188 43.25 0.828125 C 39.082031 2.023438 34.367188 2.625 29.109375 2.625 C 24.867188 2.625 21.191406 1.929688 18.078125 0.546875 C 14.972656 -0.824219 12.394531 -2.722656 10.34375 -5.140625 C 8.289062 -7.566406 6.765625 -10.347656 5.765625 -13.484375 C 4.773438 -16.617188 4.28125 -19.914062 4.28125 -23.375 C 4.28125 -25.21875 4.421875 -27.0625 4.703125 -28.90625 C 5.617188 -34.757812 7.3125 -40.175781 9.78125 -45.15625 C 12.25 -50.132812 15.234375 -54.582031 18.734375 -58.5 C 22.242188 -62.414062 26.0625 -65.769531 30.1875 -68.5625 C 34.3125 -71.351562 38.53125 -73.472656 42.84375 -74.921875 C 47.15625 -76.378906 51.316406 -77.109375 55.328125 -77.109375 C 57.347656 -77.109375 59.328125 -76.957031 61.265625 -76.65625 C 63.203125 -76.351562 65.117188 -75.8125 67.015625 -75.03125 C 67.984375 -75.8125 69.039062 -76.5 70.1875 -77.09375 C 71.34375 -77.695312 72.425781 -78 73.4375 -78 C 73.945312 -78 74.476562 -77.882812 75.03125 -77.65625 C 75.394531 -77.46875 75.578125 -77.144531 75.578125 -76.6875 Z M 75.578125 -76.6875 "/></g></g></g><g fill="#000000" fill-opacity="1"><g transform="translate(353.157603, 373.084519)"><g><path d="M 27.65625 -64.796875 C 26.832031 -64.796875 26.082031 -65.0625 25.40625 -65.59375 C 24.738281 -66.125 24.207031 -66.769531 23.8125 -67.53125 C 23.425781 -68.289062 23.234375 -68.992188 23.234375 -69.640625 C 23.234375 -70.742188 23.554688 -71.800781 24.203125 -72.8125 C 24.847656 -73.832031 25.65625 -74.722656 26.625 -75.484375 C 27.59375 -76.242188 28.5625 -76.851562 29.53125 -77.3125 C 30.5 -77.769531 31.328125 -78 32.015625 -78 C 32.617188 -78 33.253906 -77.734375 33.921875 -77.203125 C 34.585938 -76.671875 35.160156 -76.003906 35.640625 -75.203125 C 36.128906 -74.398438 36.375 -73.582031 36.375 -72.75 L 36.3125 -71.921875 C 36.125 -71.085938 35.59375 -70.128906 34.71875 -69.046875 C 33.84375 -67.960938 32.78125 -67.003906 31.53125 -66.171875 C 30.289062 -65.347656 29 -64.890625 27.65625 -64.796875 Z M 46.75 -33.8125 C 47.394531 -33.8125 47.71875 -33.210938 47.71875 -32.015625 C 47.71875 -31.785156 47.71875 -31.539062 47.71875 -31.28125 C 47.71875 -31.03125 47.691406 -30.769531 47.640625 -30.5 C 47.554688 -29.851562 46.984375 -28.8125 45.921875 -27.375 C 44.859375 -25.945312 43.4375 -24.265625 41.65625 -22.328125 C 39.882812 -20.398438 37.878906 -18.375 35.640625 -16.25 C 33.410156 -14.125 31.097656 -12.035156 28.703125 -9.984375 C 26.304688 -7.941406 23.941406 -6.085938 21.609375 -4.421875 C 19.285156 -2.765625 17.109375 -1.441406 15.078125 -0.453125 C 13.046875 0.535156 11.335938 1.03125 9.953125 1.03125 C 8.898438 1.03125 7.84375 0.859375 6.78125 0.515625 C 5.71875 0.171875 4.835938 -0.53125 4.140625 -1.59375 C 3.453125 -2.65625 3.109375 -4.195312 3.109375 -6.21875 C 3.109375 -7.738281 3.328125 -9.601562 3.765625 -11.8125 C 4.203125 -14.03125 4.929688 -16.640625 5.953125 -19.640625 L 8.859375 -29.046875 L 14.109375 -46.1875 C 14.296875 -46.976562 14.535156 -47.984375 14.828125 -49.203125 C 15.128906 -50.421875 15.519531 -51.628906 16 -52.828125 C 16.488281 -54.023438 17.113281 -55.039062 17.875 -55.875 C 18.632812 -56.707031 19.566406 -57.125 20.671875 -57.125 C 21.597656 -57.125 22.441406 -56.878906 23.203125 -56.390625 C 23.960938 -55.910156 24.582031 -55.332031 25.0625 -54.65625 C 25.550781 -53.988281 25.796875 -53.332031 25.796875 -52.6875 C 25.796875 -51.957031 25.597656 -50.710938 25.203125 -48.953125 C 24.816406 -47.203125 24.101562 -45.140625 23.0625 -42.765625 C 22.019531 -40.390625 20.535156 -37.9375 18.609375 -35.40625 C 18.285156 -34.25 17.9375 -33.195312 17.5625 -32.25 C 17.195312 -31.3125 16.804688 -30.242188 16.390625 -29.046875 C 15.835938 -27.472656 15.203125 -25.476562 14.484375 -23.0625 C 13.773438 -20.644531 12.910156 -17.382812 11.890625 -13.28125 C 11.710938 -12.445312 11.539062 -11.671875 11.375 -10.953125 C 11.21875 -10.242188 11.140625 -9.632812 11.140625 -9.125 C 11.140625 -8.15625 11.484375 -7.671875 12.171875 -7.671875 C 12.816406 -7.671875 13.828125 -8.070312 15.203125 -8.875 C 16.585938 -9.6875 18.46875 -11.003906 20.84375 -12.828125 C 23.21875 -14.648438 26.226562 -17.09375 29.875 -20.15625 C 33.519531 -23.21875 37.898438 -27.007812 43.015625 -31.53125 C 44.722656 -33.050781 45.96875 -33.8125 46.75 -33.8125 Z M 46.75 -33.8125 "/></g></g></g><g fill="#000000" fill-opacity="1"><g transform="translate(387.522342, 373.084519)"><g><path d="M 78.90625 -33.8125 C 79.550781 -33.8125 79.875 -33.210938 79.875 -32.015625 C 79.875 -31.785156 79.875 -31.539062 79.875 -31.28125 C 79.875 -31.03125 79.847656 -30.769531 79.796875 -30.5 C 79.710938 -29.851562 79.140625 -28.8125 78.078125 -27.375 C 77.015625 -25.945312 75.59375 -24.265625 73.8125 -22.328125 C 72.039062 -20.398438 70.035156 -18.375 67.796875 -16.25 C 65.566406 -14.125 63.253906 -12.035156 60.859375 -9.984375 C 58.460938 -7.941406 56.097656 -6.085938 53.765625 -4.421875 C 51.441406 -2.765625 49.265625 -1.441406 47.234375 -0.453125 C 45.203125 0.535156 43.492188 1.03125 42.109375 1.03125 C 41.054688 1.03125 40 0.859375 38.9375 0.515625 C 37.875 0.171875 36.992188 -0.53125 36.296875 -1.59375 C 35.609375 -2.65625 35.265625 -4.195312 35.265625 -6.21875 C 35.265625 -7.238281 35.359375 -8.414062 35.546875 -9.75 C 35.734375 -11.082031 36.03125 -12.582031 36.4375 -14.25 C 33.21875 -10.414062 30.269531 -7.367188 27.59375 -5.109375 C 24.914062 -2.859375 22.410156 -1.222656 20.078125 -0.203125 C 17.753906 0.804688 15.460938 1.359375 13.203125 1.453125 C 10.898438 1.453125 8.828125 0.792969 6.984375 -0.515625 C 5.140625 -1.828125 3.6875 -3.671875 2.625 -6.046875 C 1.5625 -8.421875 1.03125 -11.222656 1.03125 -14.453125 C 1.03125 -17.953125 1.609375 -21.441406 2.765625 -24.921875 C 3.921875 -28.410156 5.5 -31.742188 7.5 -34.921875 C 9.507812 -38.097656 11.816406 -41.046875 14.421875 -43.765625 C 17.023438 -46.492188 19.820312 -48.867188 22.8125 -50.890625 C 25.8125 -52.921875 28.867188 -54.5 31.984375 -55.625 C 35.097656 -56.757812 38.128906 -57.328125 41.078125 -57.328125 C 42.273438 -57.328125 43.597656 -57.222656 45.046875 -57.015625 C 46.503906 -56.804688 47.890625 -56.445312 49.203125 -55.9375 C 50.515625 -55.4375 51.597656 -54.769531 52.453125 -53.9375 C 53.304688 -53.101562 53.734375 -52.066406 53.734375 -50.828125 C 53.734375 -49.992188 53.523438 -49.1875 53.109375 -48.40625 C 53.847656 -47.945312 54.445312 -47.394531 54.90625 -46.75 C 55.363281 -46.101562 55.59375 -45.457031 55.59375 -44.8125 C 55.59375 -44.125 55.382812 -43.085938 54.96875 -41.703125 C 54.5625 -40.316406 54.019531 -38.789062 53.34375 -37.125 C 52.675781 -35.46875 51.953125 -33.878906 51.171875 -32.359375 C 50.390625 -30.835938 49.648438 -29.59375 48.953125 -28.625 L 48.265625 -27.03125 C 47.765625 -25.332031 47.351562 -24 47.03125 -23.03125 C 46.707031 -22.0625 46.441406 -21.226562 46.234375 -20.53125 C 46.023438 -19.84375 45.78125 -19.09375 45.5 -18.28125 C 45.226562 -17.476562 44.882812 -16.382812 44.46875 -15 L 44.046875 -13.28125 C 43.867188 -12.445312 43.695312 -11.671875 43.53125 -10.953125 C 43.375 -10.242188 43.296875 -9.632812 43.296875 -9.125 C 43.296875 -8.15625 43.640625 -7.671875 44.328125 -7.671875 C 44.972656 -7.671875 45.984375 -8.070312 47.359375 -8.875 C 48.742188 -9.6875 50.625 -11.003906 53 -12.828125 C 55.375 -14.648438 58.382812 -17.09375 62.03125 -20.15625 C 65.675781 -23.21875 70.054688 -27.007812 75.171875 -31.53125 C 76.878906 -33.050781 78.125 -33.8125 78.90625 -33.8125 Z M 15.625 -6.5 C 17.789062 -6.539062 20.015625 -7.359375 22.296875 -8.953125 C 24.578125 -10.546875 26.878906 -12.65625 29.203125 -15.28125 C 31.535156 -17.90625 33.820312 -20.832031 36.0625 -24.0625 C 38.300781 -27.289062 40.429688 -30.585938 42.453125 -33.953125 L 43.90625 -38.3125 C 43.90625 -38.40625 43.914062 -38.484375 43.9375 -38.546875 C 43.96875 -38.617188 43.984375 -38.675781 43.984375 -38.71875 L 46.671875 -46.671875 C 46.816406 -46.992188 47.003906 -47.273438 47.234375 -47.515625 C 45.941406 -48.066406 44.726562 -48.441406 43.59375 -48.640625 C 42.46875 -48.847656 41.304688 -48.953125 40.109375 -48.953125 C 37.847656 -48.953125 35.320312 -48.375 32.53125 -47.21875 C 29.75 -46.070312 26.972656 -44.460938 24.203125 -42.390625 C 21.429688 -40.316406 18.878906 -37.882812 16.546875 -35.09375 C 14.222656 -32.300781 12.359375 -29.242188 10.953125 -25.921875 C 9.554688 -22.609375 8.859375 -19.128906 8.859375 -15.484375 C 8.859375 -12.953125 9.363281 -10.820312 10.375 -9.09375 C 11.382812 -7.363281 13 -6.5 15.21875 -6.5 Z M 15.625 -6.5 "/></g></g></g><g fill="#000000" fill-opacity="1"><g transform="translate(453.970047, 373.084519)"><g><path d="M 117.84375 -33.8125 C 118.476562 -33.8125 118.796875 -33.210938 118.796875 -32.015625 C 118.796875 -31.785156 118.796875 -31.539062 118.796875 -31.28125 C 118.796875 -31.03125 118.773438 -30.769531 118.734375 -30.5 C 118.640625 -29.851562 118.0625 -28.8125 117 -27.375 C 115.945312 -25.945312 114.53125 -24.265625 112.75 -22.328125 C 110.976562 -20.398438 108.972656 -18.375 106.734375 -16.25 C 104.503906 -14.125 102.1875 -12.035156 99.78125 -9.984375 C 97.382812 -7.941406 95.019531 -6.085938 92.6875 -4.421875 C 90.363281 -2.765625 88.1875 -1.441406 86.15625 -0.453125 C 84.132812 0.535156 82.429688 1.03125 81.046875 1.03125 C 79.984375 1.03125 78.921875 0.859375 77.859375 0.515625 C 76.804688 0.171875 75.929688 -0.53125 75.234375 -1.59375 C 74.546875 -2.65625 74.203125 -4.195312 74.203125 -6.21875 C 74.203125 -7.738281 74.453125 -9.695312 74.953125 -12.09375 C 75.460938 -14.5 76.363281 -17.753906 77.65625 -21.859375 C 78.945312 -26.191406 80.078125 -29.644531 81.046875 -32.21875 C 82.015625 -34.800781 82.820312 -36.851562 83.46875 -38.375 C 84.113281 -39.894531 84.597656 -41.234375 84.921875 -42.390625 C 85.566406 -44.367188 85.9375 -46.023438 86.03125 -47.359375 C 86.125 -48.703125 85.773438 -49.375 84.984375 -49.375 C 84.484375 -49.375 83.492188 -48.820312 82.015625 -47.71875 C 80.535156 -46.613281 78.710938 -45.125 76.546875 -43.25 C 74.378906 -41.382812 72.023438 -39.273438 69.484375 -36.921875 C 66.953125 -34.578125 64.375 -32.113281 61.75 -29.53125 C 59.125 -26.945312 56.585938 -24.382812 54.140625 -21.84375 C 51.703125 -19.3125 49.515625 -16.960938 47.578125 -14.796875 L 45.984375 -9.6875 C 45.796875 -8.894531 45.5625 -7.890625 45.28125 -6.671875 C 45.007812 -5.453125 44.628906 -4.242188 44.140625 -3.046875 C 43.660156 -1.847656 43.039062 -0.832031 42.28125 0 C 41.519531 0.832031 40.566406 1.25 39.421875 1.25 C 38.078125 1.25 37 0.742188 36.1875 -0.265625 C 35.382812 -1.285156 34.984375 -2.257812 34.984375 -3.1875 C 34.984375 -3.914062 35.003906 -4.878906 35.046875 -6.078125 C 35.097656 -7.285156 35.515625 -8.773438 36.296875 -10.546875 C 37.085938 -12.316406 38.539062 -14.378906 40.65625 -16.734375 C 41.945312 -20.878906 43.179688 -24.691406 44.359375 -28.171875 C 45.535156 -31.660156 46.570312 -34.625 47.46875 -37.0625 C 48.375 -39.507812 48.988281 -41.285156 49.3125 -42.390625 C 49.957031 -44.367188 50.320312 -46.023438 50.40625 -47.359375 C 50.5 -48.703125 50.15625 -49.375 49.375 -49.375 C 48.863281 -49.375 47.867188 -48.820312 46.390625 -47.71875 C 44.921875 -46.613281 43.101562 -45.125 40.9375 -43.25 C 38.769531 -41.382812 36.414062 -39.273438 33.875 -36.921875 C 31.34375 -34.578125 28.765625 -32.113281 26.140625 -29.53125 C 23.515625 -26.945312 20.976562 -24.382812 18.53125 -21.84375 C 16.09375 -19.3125 13.90625 -16.960938 11.96875 -14.796875 L 10.375 -9.6875 C 10.1875 -8.894531 9.953125 -7.890625 9.671875 -6.671875 C 9.398438 -5.453125 9.019531 -4.242188 8.53125 -3.046875 C 8.050781 -1.847656 7.429688 -0.832031 6.671875 0 C 5.910156 0.832031 4.953125 1.25 3.796875 1.25 C 2.460938 1.25 1.390625 0.742188 0.578125 -0.265625 C -0.222656 -1.285156 -0.625 -2.257812 -0.625 -3.1875 C -0.625 -3.738281 -0.625 -4.4375 -0.625 -5.28125 C -0.625 -6.132812 -0.460938 -7.160156 -0.140625 -8.359375 C 0.179688 -9.566406 0.800781 -10.941406 1.71875 -12.484375 C 2.644531 -14.023438 4.03125 -15.742188 5.875 -17.640625 C 6.15625 -18.460938 6.441406 -19.472656 6.734375 -20.671875 C 7.035156 -21.867188 7.453125 -23.484375 7.984375 -25.515625 C 8.515625 -27.546875 9.273438 -30.21875 10.265625 -33.53125 C 11.253906 -36.851562 12.535156 -41.070312 14.109375 -46.1875 C 14.296875 -46.976562 14.535156 -47.984375 14.828125 -49.203125 C 15.128906 -50.421875 15.519531 -51.628906 16 -52.828125 C 16.488281 -54.023438 17.113281 -55.039062 17.875 -55.875 C 18.632812 -56.707031 19.566406 -57.125 20.671875 -57.125 C 21.597656 -57.125 22.441406 -56.878906 23.203125 -56.390625 C 23.960938 -55.910156 24.582031 -55.332031 25.0625 -54.65625 C 25.550781 -53.988281 25.796875 -53.332031 25.796875 -52.6875 C 25.796875 -51.957031 25.617188 -50.832031 25.265625 -49.3125 C 24.921875 -47.789062 24.253906 -45.957031 23.265625 -43.8125 C 22.273438 -41.664062 20.8125 -39.328125 18.875 -36.796875 C 18.550781 -35.640625 18.179688 -34.445312 17.765625 -33.21875 C 17.359375 -32 16.898438 -30.675781 16.390625 -29.25 C 18.597656 -31.601562 20.992188 -34.082031 23.578125 -36.6875 C 26.160156 -39.289062 28.8125 -41.8125 31.53125 -44.25 C 34.25 -46.695312 36.921875 -48.898438 39.546875 -50.859375 C 42.179688 -52.816406 44.671875 -54.382812 47.015625 -55.5625 C 49.367188 -56.738281 51.445312 -57.328125 53.25 -57.328125 C 55.363281 -57.328125 56.894531 -56.757812 57.84375 -55.625 C 58.789062 -54.5 59.265625 -52.96875 59.265625 -51.03125 C 59.265625 -49.09375 58.875 -46.90625 58.09375 -44.46875 C 57.71875 -43.3125 57.253906 -42.085938 56.703125 -40.796875 C 56.148438 -39.503906 55.503906 -37.957031 54.765625 -36.15625 C 54.023438 -34.363281 53.171875 -32.128906 52.203125 -29.453125 C 54.421875 -31.804688 56.820312 -34.273438 59.40625 -36.859375 C 61.988281 -39.441406 64.625 -41.941406 67.3125 -44.359375 C 70.007812 -46.773438 72.660156 -48.960938 75.265625 -50.921875 C 77.878906 -52.890625 80.347656 -54.445312 82.671875 -55.59375 C 85.003906 -56.75 87.066406 -57.328125 88.859375 -57.328125 C 90.984375 -57.328125 92.515625 -56.757812 93.453125 -55.625 C 94.398438 -54.5 94.875 -52.96875 94.875 -51.03125 C 94.875 -49.09375 94.484375 -46.90625 93.703125 -44.46875 C 93.378906 -43.363281 92.953125 -42.1875 92.421875 -40.9375 C 91.890625 -39.695312 91.265625 -38.234375 90.546875 -36.546875 C 89.835938 -34.859375 89.054688 -32.816406 88.203125 -30.421875 C 87.347656 -28.023438 86.390625 -25.125 85.328125 -21.71875 C 85.003906 -20.601562 84.632812 -19.332031 84.21875 -17.90625 C 83.8125 -16.476562 83.398438 -14.9375 82.984375 -13.28125 C 82.796875 -12.445312 82.617188 -11.671875 82.453125 -10.953125 C 82.296875 -10.242188 82.21875 -9.632812 82.21875 -9.125 C 82.21875 -8.15625 82.566406 -7.671875 83.265625 -7.671875 C 83.910156 -7.671875 84.921875 -8.070312 86.296875 -8.875 C 87.679688 -9.6875 89.5625 -11.003906 91.9375 -12.828125 C 94.3125 -14.648438 97.316406 -17.09375 100.953125 -20.15625 C 104.597656 -23.21875 108.984375 -27.007812 114.109375 -31.53125 C 115.804688 -33.050781 117.050781 -33.8125 117.84375 -33.8125 Z M 117.84375 -33.8125 "/></g></g></g><g fill="#000000" fill-opacity="1"><g transform="translate(559.415152, 373.084519)"><g><path d="M 38.796875 -58.15625 C 40.867188 -58.15625 42.914062 -57.691406 44.9375 -56.765625 C 46.96875 -55.847656 48.648438 -54.515625 49.984375 -52.765625 C 51.328125 -51.015625 52 -48.847656 52 -46.265625 C 52 -43.316406 51.34375 -40.628906 50.03125 -38.203125 C 48.71875 -35.785156 46.953125 -33.628906 44.734375 -31.734375 C 42.523438 -29.847656 40.015625 -28.210938 37.203125 -26.828125 C 34.390625 -25.441406 31.484375 -24.273438 28.484375 -23.328125 C 25.492188 -22.390625 22.578125 -21.675781 19.734375 -21.1875 C 16.898438 -20.707031 14.332031 -20.421875 12.03125 -20.328125 C 11.988281 -19.867188 11.96875 -19.394531 11.96875 -18.90625 C 11.96875 -18.425781 11.96875 -17.957031 11.96875 -17.5 C 12.238281 -14.082031 13.210938 -11.359375 14.890625 -9.328125 C 16.578125 -7.304688 19.101562 -6.296875 22.46875 -6.296875 C 25.28125 -6.296875 28.09375 -6.835938 30.90625 -7.921875 C 33.71875 -9.003906 36.484375 -10.441406 39.203125 -12.234375 C 41.929688 -14.035156 44.609375 -16.039062 47.234375 -18.25 C 49.859375 -20.46875 52.425781 -22.726562 54.9375 -25.03125 C 57.445312 -27.332031 59.859375 -29.5 62.171875 -31.53125 C 63.878906 -33.050781 65.125 -33.8125 65.90625 -33.8125 C 66.550781 -33.8125 66.875 -33.210938 66.875 -32.015625 C 66.875 -31.785156 66.875 -31.539062 66.875 -31.28125 C 66.875 -31.03125 66.847656 -30.769531 66.796875 -30.5 C 66.703125 -29.851562 66.132812 -28.800781 65.09375 -27.34375 C 64.0625 -25.894531 62.644531 -24.203125 60.84375 -22.265625 C 59.050781 -20.328125 56.988281 -18.285156 54.65625 -16.140625 C 52.332031 -14.003906 49.8125 -11.910156 47.09375 -9.859375 C 44.375 -7.804688 41.5625 -5.9375 38.65625 -4.25 C 35.75 -2.570312 32.84375 -1.234375 29.9375 -0.234375 C 27.039062 0.753906 24.226562 1.25 21.5 1.25 C 17.726562 1.25 14.535156 0.449219 11.921875 -1.140625 C 9.316406 -2.734375 7.347656 -4.898438 6.015625 -7.640625 C 4.679688 -10.378906 4.015625 -13.503906 4.015625 -17.015625 C 4.015625 -17.660156 4.035156 -18.328125 4.078125 -19.015625 C 4.128906 -19.703125 4.195312 -20.394531 4.28125 -21.09375 C 5.019531 -26.34375 6.445312 -31.179688 8.5625 -35.609375 C 10.6875 -40.035156 13.316406 -43.90625 16.453125 -47.21875 C 19.585938 -50.539062 23.066406 -53.160156 26.890625 -55.078125 C 30.722656 -56.992188 34.691406 -58.019531 38.796875 -58.15625 Z M 35.6875 -49.859375 C 33.375 -49.765625 31.097656 -49.09375 28.859375 -47.84375 C 26.628906 -46.601562 24.519531 -44.945312 22.53125 -42.875 C 20.550781 -40.800781 18.789062 -38.484375 17.25 -35.921875 C 15.707031 -33.367188 14.453125 -30.707031 13.484375 -27.9375 C 17.453125 -28.21875 21.207031 -28.816406 24.75 -29.734375 C 28.300781 -30.660156 31.457031 -31.859375 34.21875 -33.328125 C 36.988281 -34.804688 39.171875 -36.523438 40.765625 -38.484375 C 42.359375 -40.441406 43.15625 -42.597656 43.15625 -44.953125 C 43.15625 -46.703125 42.554688 -47.957031 41.359375 -48.71875 C 40.160156 -49.476562 38.269531 -49.859375 35.6875 -49.859375 Z M 35.6875 -49.859375 "/></g></g></g><g fill="#000000" fill-opacity="1"><g transform="translate(613.209437, 373.084519)"><g><path d="M 60.375 -76.765625 C 60.550781 -77.546875 60.8125 -78.507812 61.15625 -79.65625 C 61.507812 -80.8125 61.960938 -81.953125 62.515625 -83.078125 C 63.066406 -84.210938 63.753906 -85.160156 64.578125 -85.921875 C 65.410156 -86.679688 66.382812 -87.0625 67.5 -87.0625 C 69.664062 -87.0625 71.082031 -86.65625 71.75 -85.84375 C 72.414062 -85.039062 72.75 -84.179688 72.75 -83.265625 C 72.75 -81.878906 72.484375 -80.132812 71.953125 -78.03125 C 71.421875 -75.9375 70.726562 -73.675781 69.875 -71.25 C 69.019531 -68.832031 68.070312 -66.390625 67.03125 -63.921875 C 66 -61.460938 64.972656 -59.148438 63.953125 -56.984375 C 62.941406 -54.816406 62.007812 -52.945312 61.15625 -51.375 C 60.3125 -49.8125 59.65625 -48.726562 59.1875 -48.125 C 58.78125 -46.832031 58.195312 -44.976562 57.4375 -42.5625 C 56.675781 -40.144531 55.796875 -37.367188 54.796875 -34.234375 C 53.804688 -31.097656 52.804688 -27.726562 51.796875 -24.125 C 50.785156 -20.53125 49.816406 -16.914062 48.890625 -13.28125 C 48.703125 -12.445312 48.523438 -11.671875 48.359375 -10.953125 C 48.203125 -10.242188 48.125 -9.632812 48.125 -9.125 C 48.125 -8.207031 48.398438 -7.722656 48.953125 -7.671875 C 49.648438 -7.765625 50.703125 -8.238281 52.109375 -9.09375 C 53.515625 -9.945312 55.414062 -11.296875 57.8125 -13.140625 C 60.207031 -14.984375 63.191406 -17.398438 66.765625 -20.390625 C 70.335938 -23.390625 74.613281 -27.101562 79.59375 -31.53125 C 81.300781 -33.050781 82.546875 -33.8125 83.328125 -33.8125 L 83.75 -33.8125 C 84.394531 -33.8125 84.71875 -33.210938 84.71875 -32.015625 C 84.71875 -31.785156 84.71875 -31.539062 84.71875 -31.28125 C 84.71875 -31.03125 84.691406 -30.769531 84.640625 -30.5 C 84.546875 -29.851562 83.96875 -28.8125 82.90625 -27.375 C 81.851562 -25.945312 80.4375 -24.265625 78.65625 -22.328125 C 76.882812 -20.398438 74.878906 -18.375 72.640625 -16.25 C 70.410156 -14.125 68.09375 -12.035156 65.6875 -9.984375 C 63.289062 -7.941406 60.925781 -6.085938 58.59375 -4.421875 C 56.269531 -2.765625 54.09375 -1.441406 52.0625 -0.453125 C 50.039062 0.535156 48.335938 1.03125 46.953125 1.03125 L 46.546875 1.03125 C 45.484375 1.03125 44.421875 0.859375 43.359375 0.515625 C 42.296875 0.171875 41.414062 -0.53125 40.71875 -1.59375 C 40.03125 -2.65625 39.6875 -4.195312 39.6875 -6.21875 C 39.6875 -7.238281 39.78125 -8.414062 39.96875 -9.75 C 40.15625 -11.082031 40.457031 -12.582031 40.875 -14.25 C 37.644531 -10.414062 34.691406 -7.367188 32.015625 -5.109375 C 29.335938 -2.859375 26.832031 -1.222656 24.5 -0.203125 C 22.175781 0.804688 19.890625 1.359375 17.640625 1.453125 C 15.328125 1.453125 13.132812 0.738281 11.0625 -0.6875 C 8.988281 -2.113281 7.304688 -4.070312 6.015625 -6.5625 C 4.722656 -9.050781 4.078125 -11.910156 4.078125 -15.140625 C 4.078125 -19.054688 4.753906 -23.039062 6.109375 -27.09375 C 7.472656 -31.15625 9.34375 -35.039062 11.71875 -38.75 C 14.09375 -42.46875 16.820312 -45.78125 19.90625 -48.6875 C 23 -51.59375 26.320312 -53.882812 29.875 -55.5625 C 33.425781 -57.25 37.019531 -58.09375 40.65625 -58.09375 C 42.269531 -58.09375 43.941406 -57.914062 45.671875 -57.5625 C 47.398438 -57.21875 48.875 -56.617188 50.09375 -55.765625 C 51.320312 -54.921875 51.9375 -53.734375 51.9375 -52.203125 C 51.9375 -51.097656 51.625 -50.117188 51 -49.265625 C 50.375 -48.410156 49.488281 -47.984375 48.34375 -47.984375 C 47.875 -47.984375 47.316406 -48.125 46.671875 -48.40625 C 45.472656 -48.863281 44.34375 -49.1875 43.28125 -49.375 C 42.226562 -49.5625 41.171875 -49.65625 40.109375 -49.65625 C 37.804688 -49.65625 35.351562 -49.085938 32.75 -47.953125 C 30.144531 -46.828125 27.609375 -45.238281 25.140625 -43.1875 C 22.671875 -41.132812 20.441406 -38.691406 18.453125 -35.859375 C 16.472656 -33.023438 14.882812 -29.890625 13.6875 -26.453125 C 12.488281 -23.015625 11.890625 -19.359375 11.890625 -15.484375 C 11.890625 -12.953125 12.625 -10.820312 14.09375 -9.09375 C 15.570312 -7.363281 17.421875 -6.5 19.640625 -6.5 L 20.046875 -6.5 C 22.210938 -6.539062 24.445312 -7.378906 26.75 -9.015625 C 29.0625 -10.660156 31.367188 -12.851562 33.671875 -15.59375 C 35.984375 -18.332031 38.207031 -21.382812 40.34375 -24.75 C 42.488281 -28.125 44.4375 -31.5625 46.1875 -35.0625 L 50.890625 -45.78125 Z M 60.375 -76.765625 "/></g></g></g></g></g></g></g></g></g></mask><clipPath id="3e76ef06dd"><path d="M 0.378906 20.949219 L 968.09375 20.949219 L 968.09375 670.441406 L 0.378906 670.441406 Z M 0.378906 20.949219 " clip-rule="nonzero"/></clipPath><linearGradient x1="153.828003" gradientTransform="matrix(1.304114, 0, 0, 1.303174, 283.628509, 283.143947)" y1="-201.195994" x2="153.828003" gradientUnits="userSpaceOnUse" y2="297.19597" id="2cb02151e8"><stop stop-opacity="1" stop-color="rgb(0%, 30.198669%, 28.239441%)" offset="0"/><stop stop-opacity="1" stop-color="rgb(0%, 30.198669%, 28.239441%)" offset="0.25"/><stop stop-opacity="1" stop-color="rgb(0%, 30.198669%, 28.239441%)" offset="0.375"/><stop stop-opacity="1" stop-color="rgb(0%, 30.198669%, 28.239441%)" offset="0.40625"/><stop stop-opacity="1" stop-color="rgb(0%, 30.198669%, 28.239441%)" offset="0.421875"/><stop stop-opacity="1" stop-color="rgb(0%, 30.198669%, 28.239441%)" offset="0.429688"/><stop stop-opacity="1" stop-color="rgb(0.163269%, 30.630493%, 28.652954%)" offset="0.433594"/><stop stop-opacity="1" stop-color="rgb(0.328064%, 31.063843%, 29.067993%)" offset="0.4375"/><stop stop-opacity="1" stop-color="rgb(1.078796%, 33.042908%, 30.964661%)" offset="0.441406"/><stop stop-opacity="1" stop-color="rgb(1.831055%, 35.023499%, 32.861328%)" offset="0.445312"/><stop stop-opacity="1" stop-color="rgb(2.581787%, 37.004089%, 34.757996%)" offset="0.449219"/><stop stop-opacity="1" stop-color="rgb(3.334045%, 38.98468%, 36.654663%)" offset="0.453125"/><stop stop-opacity="1" stop-color="rgb(4.084778%, 40.963745%, 38.551331%)" offset="0.457031"/><stop stop-opacity="1" stop-color="rgb(4.837036%, 42.944336%, 40.447998%)" offset="0.460938"/><stop stop-opacity="1" stop-color="rgb(5.589294%, 44.923401%, 42.344666%)" offset="0.464844"/><stop stop-opacity="1" stop-color="rgb(6.341553%, 46.903992%, 44.241333%)" offset="0.46875"/><stop stop-opacity="1" stop-color="rgb(7.092285%, 48.883057%, 46.138%)" offset="0.472656"/><stop stop-opacity="1" stop-color="rgb(7.844543%, 50.863647%, 48.034668%)" offset="0.476563"/><stop stop-opacity="1" stop-color="rgb(8.595276%, 52.844238%, 49.931335%)" offset="0.480469"/><stop stop-opacity="1" stop-color="rgb(9.347534%, 54.824829%, 51.828003%)" offset="0.484375"/><stop stop-opacity="1" stop-color="rgb(10.098267%, 56.803894%, 53.72467%)" offset="0.488281"/><stop stop-opacity="1" stop-color="rgb(10.850525%, 58.784485%, 55.621338%)" offset="0.492188"/><stop stop-opacity="1" stop-color="rgb(11.601257%, 60.76355%, 57.518005%)" offset="0.496094"/><stop stop-opacity="1" stop-color="rgb(12.353516%, 62.744141%, 59.414673%)" offset="0.5"/><stop stop-opacity="1" stop-color="rgb(13.105774%, 64.723206%, 61.31134%)" offset="0.503906"/><stop stop-opacity="1" stop-color="rgb(13.858032%, 66.703796%, 63.208008%)" offset="0.507812"/><stop stop-opacity="1" stop-color="rgb(14.608765%, 68.684387%, 65.104675%)" offset="0.511719"/><stop stop-opacity="1" stop-color="rgb(15.361023%, 70.664978%, 67.001343%)" offset="0.515625"/><stop stop-opacity="1" stop-color="rgb(16.111755%, 72.644043%, 68.89801%)" offset="0.519531"/><stop stop-opacity="1" stop-color="rgb(16.864014%, 74.624634%, 70.794678%)" offset="0.523438"/><stop stop-opacity="1" stop-color="rgb(17.614746%, 76.603699%, 72.691345%)" offset="0.527344"/><stop stop-opacity="1" stop-color="rgb(18.367004%, 78.58429%, 74.588013%)" offset="0.53125"/><stop stop-opacity="1" stop-color="rgb(19.119263%, 80.563354%, 76.48468%)" offset="0.535156"/><stop stop-opacity="1" stop-color="rgb(19.871521%, 82.543945%, 78.381348%)" offset="0.539062"/><stop stop-opacity="1" stop-color="rgb(20.622253%, 84.52301%, 80.278015%)" offset="0.542969"/><stop stop-opacity="1" stop-color="rgb(21.374512%, 86.503601%, 82.174683%)" offset="0.546875"/><stop stop-opacity="1" stop-color="rgb(22.125244%, 88.484192%, 84.07135%)" offset="0.550781"/><stop stop-opacity="1" stop-color="rgb(22.877502%, 90.464783%, 85.968018%)" offset="0.554688"/><stop stop-opacity="1" stop-color="rgb(23.628235%, 92.443848%, 87.864685%)" offset="0.558594"/><stop stop-opacity="1" stop-color="rgb(24.380493%, 94.424438%, 89.761353%)" offset="0.5625"/><stop stop-opacity="1" stop-color="rgb(24.543762%, 94.856262%, 90.174866%)" offset="0.566406"/><stop stop-opacity="1" stop-color="rgb(24.708557%, 95.289612%, 90.589905%)" offset="0.570312"/><stop stop-opacity="1" stop-color="rgb(24.708557%, 95.289612%, 90.589905%)" offset="0.578125"/><stop stop-opacity="1" stop-color="rgb(24.708557%, 95.289612%, 90.589905%)" offset="0.59375"/><stop stop-opacity="1" stop-color="rgb(24.708557%, 95.289612%, 90.589905%)" offset="0.625"/><stop stop-opacity="1" stop-color="rgb(24.708557%, 95.289612%, 90.589905%)" offset="0.75"/><stop stop-opacity="1" stop-color="rgb(24.708557%, 95.289612%, 90.589905%)" offset="1"/></linearGradient><clipPath id="7dac043ce5"><rect x="0" width="983" y="0" height="693"/></clipPath><clipPath id="703bd15ad4"><rect x="0" width="983" y="0" height="693"/></clipPath><clipPath id="a91f56655b"><rect x="0" width="985" y="0" height="696"/></clipPath></defs><g transform="matrix(1, 0, 0, 1, 372, 270)"><g clip-path="url(#3cf4ea8928)"><g fill="#f9fafb" fill-opacity="1"><g transform="translate(0.976804, 82.971231)"><g><path d="M 52.546875 -54.1875 L 32.203125 0 L 21.90625 0 L 1.484375 -54.1875 L 11 -54.1875 L 27.0625 -9.125 L 43.1875 -54.1875 Z M 52.546875 -54.1875 "/></g></g></g><g fill="#f9fafb" fill-opacity="1"><g transform="translate(50.794463, 82.971231)"><g><path d="M 24.484375 0.703125 C 20.429688 0.703125 16.765625 -0.21875 13.484375 -2.0625 C 10.210938 -3.90625 7.640625 -6.503906 5.765625 -9.859375 C 3.898438 -13.210938 2.96875 -17.097656 2.96875 -21.515625 C 2.96875 -25.878906 3.925781 -29.75 5.84375 -33.125 C 7.769531 -36.507812 10.394531 -39.109375 13.71875 -40.921875 C 17.050781 -42.742188 20.769531 -43.65625 24.875 -43.65625 C 28.976562 -43.65625 32.691406 -42.742188 36.015625 -40.921875 C 39.347656 -39.109375 41.972656 -36.507812 43.890625 -33.125 C 45.816406 -29.75 46.78125 -25.878906 46.78125 -21.515625 C 46.78125 -17.148438 45.789062 -13.273438 43.8125 -9.890625 C 41.84375 -6.515625 39.15625 -3.90625 35.75 -2.0625 C 32.34375 -0.21875 28.585938 0.703125 24.484375 0.703125 Z M 24.484375 -7.015625 C 26.765625 -7.015625 28.90625 -7.5625 30.90625 -8.65625 C 32.914062 -9.75 34.539062 -11.382812 35.78125 -13.5625 C 37.03125 -15.75 37.65625 -18.398438 37.65625 -21.515625 C 37.65625 -24.640625 37.054688 -27.28125 35.859375 -29.4375 C 34.671875 -31.59375 33.085938 -33.210938 31.109375 -34.296875 C 29.128906 -35.390625 27 -35.9375 24.71875 -35.9375 C 22.425781 -35.9375 20.304688 -35.390625 18.359375 -34.296875 C 16.410156 -33.210938 14.863281 -31.59375 13.71875 -29.4375 C 12.570312 -27.28125 12 -24.640625 12 -21.515625 C 12 -16.890625 13.179688 -13.316406 15.546875 -10.796875 C 17.921875 -8.273438 20.898438 -7.015625 24.484375 -7.015625 Z M 24.484375 -7.015625 "/></g></g></g><g fill="#f9fafb" fill-opacity="1"><g transform="translate(96.246206, 82.971231)"><g><path d="M 2.890625 -21.515625 C 2.890625 -25.929688 3.785156 -29.816406 5.578125 -33.171875 C 7.367188 -36.523438 9.847656 -39.109375 13.015625 -40.921875 C 16.191406 -42.742188 19.832031 -43.65625 23.9375 -43.65625 C 29.132812 -43.65625 33.4375 -42.421875 36.84375 -39.953125 C 40.25 -37.484375 42.546875 -33.960938 43.734375 -29.390625 L 34.15625 -29.390625 C 33.375 -31.523438 32.125 -33.1875 30.40625 -34.375 C 28.6875 -35.570312 26.53125 -36.171875 23.9375 -36.171875 C 20.300781 -36.171875 17.398438 -34.882812 15.234375 -32.3125 C 13.078125 -29.738281 12 -26.140625 12 -21.515625 C 12 -16.890625 13.078125 -13.273438 15.234375 -10.671875 C 17.398438 -8.078125 20.300781 -6.78125 23.9375 -6.78125 C 29.082031 -6.78125 32.488281 -9.039062 34.15625 -13.5625 L 43.734375 -13.5625 C 42.492188 -9.195312 40.15625 -5.726562 36.71875 -3.15625 C 33.289062 -0.582031 29.03125 0.703125 23.9375 0.703125 C 19.832031 0.703125 16.191406 -0.21875 13.015625 -2.0625 C 9.847656 -3.90625 7.367188 -6.503906 5.578125 -9.859375 C 3.785156 -13.210938 2.890625 -17.097656 2.890625 -21.515625 Z M 2.890625 -21.515625 "/></g></g></g><g fill="#f9fafb" fill-opacity="1"><g transform="translate(138.735367, 82.971231)"><g><path d="M 45.21875 -22.53125 C 45.21875 -20.914062 45.113281 -19.460938 44.90625 -18.171875 L 12.078125 -18.171875 C 12.335938 -14.734375 13.613281 -11.972656 15.90625 -9.890625 C 18.195312 -7.816406 21.003906 -6.78125 24.328125 -6.78125 C 29.109375 -6.78125 32.488281 -8.78125 34.46875 -12.78125 L 44.046875 -12.78125 C 42.753906 -8.832031 40.40625 -5.597656 37 -3.078125 C 33.59375 -0.554688 29.367188 0.703125 24.328125 0.703125 C 20.222656 0.703125 16.546875 -0.21875 13.296875 -2.0625 C 10.046875 -3.90625 7.5 -6.503906 5.65625 -9.859375 C 3.8125 -13.210938 2.890625 -17.097656 2.890625 -21.515625 C 2.890625 -25.929688 3.785156 -29.816406 5.578125 -33.171875 C 7.367188 -36.523438 9.890625 -39.109375 13.140625 -40.921875 C 16.390625 -42.742188 20.117188 -43.65625 24.328125 -43.65625 C 28.378906 -43.65625 31.988281 -42.769531 35.15625 -41 C 38.332031 -39.238281 40.800781 -36.757812 42.5625 -33.5625 C 44.332031 -30.363281 45.21875 -26.6875 45.21875 -22.53125 Z M 35.9375 -25.34375 C 35.882812 -28.613281 34.710938 -31.234375 32.421875 -33.203125 C 30.140625 -35.179688 27.3125 -36.171875 23.9375 -36.171875 C 20.875 -36.171875 18.25 -35.195312 16.0625 -33.25 C 13.875 -31.300781 12.570312 -28.664062 12.15625 -25.34375 Z M 24.078125 -52.703125 L 12.9375 -46 L 12.9375 -52.9375 L 24.078125 -59.40625 L 35.234375 -52.9375 L 35.234375 -46 Z M 24.078125 -52.703125 "/></g></g></g><g fill="#f9fafb" fill-opacity="1"><g transform="translate(182.549892, 82.971231)"><g/></g></g><g fill="#f9fafb" fill-opacity="1"><g transform="translate(198.531747, 82.971231)"><g><path d="M 2.890625 -21.515625 C 2.890625 -25.929688 3.785156 -29.816406 5.578125 -33.171875 C 7.367188 -36.523438 9.847656 -39.109375 13.015625 -40.921875 C 16.191406 -42.742188 19.832031 -43.65625 23.9375 -43.65625 C 29.132812 -43.65625 33.4375 -42.421875 36.84375 -39.953125 C 40.25 -37.484375 42.546875 -33.960938 43.734375 -29.390625 L 34.15625 -29.390625 C 33.375 -31.523438 32.125 -33.1875 30.40625 -34.375 C 28.6875 -35.570312 26.53125 -36.171875 23.9375 -36.171875 C 20.300781 -36.171875 17.398438 -34.882812 15.234375 -32.3125 C 13.078125 -29.738281 12 -26.140625 12 -21.515625 C 12 -16.890625 13.078125 -13.273438 15.234375 -10.671875 C 17.398438 -8.078125 20.300781 -6.78125 23.9375 -6.78125 C 29.082031 -6.78125 32.488281 -9.039062 34.15625 -13.5625 L 43.734375 -13.5625 C 42.492188 -9.195312 40.15625 -5.726562 36.71875 -3.15625 C 33.289062 -0.582031 29.03125 0.703125 23.9375 0.703125 C 19.832031 0.703125 16.191406 -0.21875 13.015625 -2.0625 C 9.847656 -3.90625 7.367188 -6.503906 5.578125 -9.859375 C 3.785156 -13.210938 2.890625 -17.097656 2.890625 -21.515625 Z M 2.890625 -21.515625 "/></g></g></g><g fill="#f9fafb" fill-opacity="1"><g transform="translate(241.020907, 82.971231)"><g><path d="M 28.0625 -43.65625 C 31.34375 -43.65625 34.269531 -42.953125 36.84375 -41.546875 C 39.414062 -40.148438 41.441406 -38.070312 42.921875 -35.3125 C 44.398438 -32.5625 45.140625 -29.238281 45.140625 -25.34375 L 45.140625 0 L 36.328125 0 L 36.328125 -24.015625 C 36.328125 -27.859375 35.363281 -30.804688 33.4375 -32.859375 C 31.519531 -34.910156 28.898438 -35.9375 25.578125 -35.9375 C 22.242188 -35.9375 19.601562 -34.910156 17.65625 -32.859375 C 15.707031 -30.804688 14.734375 -27.859375 14.734375 -24.015625 L 14.734375 0 L 5.84375 0 L 5.84375 -57.703125 L 14.734375 -57.703125 L 14.734375 -37.96875 C 16.242188 -39.789062 18.15625 -41.191406 20.46875 -42.171875 C 22.78125 -43.160156 25.3125 -43.65625 28.0625 -43.65625 Z M 28.0625 -43.65625 "/></g></g></g><g fill="#f9fafb" fill-opacity="1"><g transform="translate(287.330244, 82.971231)"><g><path d="M 45.21875 -22.53125 C 45.21875 -20.914062 45.113281 -19.460938 44.90625 -18.171875 L 12.078125 -18.171875 C 12.335938 -14.734375 13.613281 -11.972656 15.90625 -9.890625 C 18.195312 -7.816406 21.003906 -6.78125 24.328125 -6.78125 C 29.109375 -6.78125 32.488281 -8.78125 34.46875 -12.78125 L 44.046875 -12.78125 C 42.753906 -8.832031 40.40625 -5.597656 37 -3.078125 C 33.59375 -0.554688 29.367188 0.703125 24.328125 0.703125 C 20.222656 0.703125 16.546875 -0.21875 13.296875 -2.0625 C 10.046875 -3.90625 7.5 -6.503906 5.65625 -9.859375 C 3.8125 -13.210938 2.890625 -17.097656 2.890625 -21.515625 C 2.890625 -25.929688 3.785156 -29.816406 5.578125 -33.171875 C 7.367188 -36.523438 9.890625 -39.109375 13.140625 -40.921875 C 16.390625 -42.742188 20.117188 -43.65625 24.328125 -43.65625 C 28.378906 -43.65625 31.988281 -42.769531 35.15625 -41 C 38.332031 -39.238281 40.800781 -36.757812 42.5625 -33.5625 C 44.332031 -30.363281 45.21875 -26.6875 45.21875 -22.53125 Z M 35.9375 -25.34375 C 35.882812 -28.613281 34.710938 -31.234375 32.421875 -33.203125 C 30.140625 -35.179688 27.3125 -36.171875 23.9375 -36.171875 C 20.875 -36.171875 18.25 -35.195312 16.0625 -33.25 C 13.875 -31.300781 12.570312 -28.664062 12.15625 -25.34375 Z M 35.9375 -25.34375 "/></g></g></g><g fill="#f9fafb" fill-opacity="1"><g transform="translate(331.144748, 82.971231)"><g><path d="M 23.15625 -43.65625 C 26.476562 -43.65625 29.425781 -42.992188 32 -41.671875 C 34.570312 -40.347656 36.585938 -38.695312 38.046875 -36.71875 L 38.046875 -42.953125 L 47.015625 -42.953125 L 47.015625 0.703125 C 47.015625 4.648438 46.179688 8.171875 44.515625 11.265625 C 42.859375 14.359375 40.457031 16.785156 37.3125 18.546875 C 34.164062 20.316406 30.410156 21.203125 26.046875 21.203125 C 20.222656 21.203125 15.382812 19.835938 11.53125 17.109375 C 7.6875 14.378906 5.503906 10.675781 4.984375 6 L 13.796875 6 C 14.472656 8.238281 15.914062 10.046875 18.125 11.421875 C 20.332031 12.796875 22.972656 13.484375 26.046875 13.484375 C 29.628906 13.484375 32.523438 12.390625 34.734375 10.203125 C 36.941406 8.023438 38.046875 4.859375 38.046875 0.703125 L 38.046875 -6.46875 C 36.535156 -4.445312 34.492188 -2.742188 31.921875 -1.359375 C 29.347656 0.0117188 26.425781 0.703125 23.15625 0.703125 C 19.414062 0.703125 16 -0.242188 12.90625 -2.140625 C 9.8125 -4.035156 7.367188 -6.6875 5.578125 -10.09375 C 3.785156 -13.5 2.890625 -17.359375 2.890625 -21.671875 C 2.890625 -25.984375 3.785156 -29.800781 5.578125 -33.125 C 7.367188 -36.457031 9.8125 -39.046875 12.90625 -40.890625 C 16 -42.734375 19.414062 -43.65625 23.15625 -43.65625 Z M 38.046875 -21.515625 C 38.046875 -24.484375 37.4375 -27.054688 36.21875 -29.234375 C 35 -31.421875 33.398438 -33.082031 31.421875 -34.21875 C 29.441406 -35.363281 27.3125 -35.9375 25.03125 -35.9375 C 22.738281 -35.9375 20.601562 -35.378906 18.625 -34.265625 C 16.65625 -33.148438 15.054688 -31.515625 13.828125 -29.359375 C 12.609375 -27.203125 12 -24.640625 12 -21.671875 C 12 -18.710938 12.609375 -16.113281 13.828125 -13.875 C 15.054688 -11.644531 16.671875 -9.941406 18.671875 -8.765625 C 20.671875 -7.597656 22.789062 -7.015625 25.03125 -7.015625 C 27.3125 -7.015625 29.441406 -7.585938 31.421875 -8.734375 C 33.398438 -9.878906 35 -11.554688 36.21875 -13.765625 C 37.4375 -15.972656 38.046875 -18.554688 38.046875 -21.515625 Z M 38.046875 -21.515625 "/></g></g></g><g fill="#f9fafb" fill-opacity="1"><g transform="translate(379.715012, 82.971231)"><g><path d="M 24.484375 0.703125 C 20.429688 0.703125 16.765625 -0.21875 13.484375 -2.0625 C 10.210938 -3.90625 7.640625 -6.503906 5.765625 -9.859375 C 3.898438 -13.210938 2.96875 -17.097656 2.96875 -21.515625 C 2.96875 -25.878906 3.925781 -29.75 5.84375 -33.125 C 7.769531 -36.507812 10.394531 -39.109375 13.71875 -40.921875 C 17.050781 -42.742188 20.769531 -43.65625 24.875 -43.65625 C 28.976562 -43.65625 32.691406 -42.742188 36.015625 -40.921875 C 39.347656 -39.109375 41.972656 -36.507812 43.890625 -33.125 C 45.816406 -29.75 46.78125 -25.878906 46.78125 -21.515625 C 46.78125 -17.148438 45.789062 -13.273438 43.8125 -9.890625 C 41.84375 -6.515625 39.15625 -3.90625 35.75 -2.0625 C 32.34375 -0.21875 28.585938 0.703125 24.484375 0.703125 Z M 24.484375 -7.015625 C 26.765625 -7.015625 28.90625 -7.5625 30.90625 -8.65625 C 32.914062 -9.75 34.539062 -11.382812 35.78125 -13.5625 C 37.03125 -15.75 37.65625 -18.398438 37.65625 -21.515625 C 37.65625 -24.640625 37.054688 -27.28125 35.859375 -29.4375 C 34.671875 -31.59375 33.085938 -33.210938 31.109375 -34.296875 C 29.128906 -35.390625 27 -35.9375 24.71875 -35.9375 C 22.425781 -35.9375 20.304688 -35.390625 18.359375 -34.296875 C 16.410156 -33.210938 14.863281 -31.59375 13.71875 -29.4375 C 12.570312 -27.28125 12 -24.640625 12 -21.515625 C 12 -16.890625 13.179688 -13.316406 15.546875 -10.796875 C 17.921875 -8.273438 20.898438 -7.015625 24.484375 -7.015625 Z M 24.484375 -7.015625 "/></g></g></g><g fill="#f9fafb" fill-opacity="1"><g transform="translate(425.166776, 82.971231)"><g><path d="M 44.75 -42.953125 L 44.75 0 L 35.859375 0 L 35.859375 -5.0625 C 34.460938 -3.300781 32.632812 -1.910156 30.375 -0.890625 C 28.113281 0.117188 25.707031 0.625 23.15625 0.625 C 19.78125 0.625 16.753906 -0.078125 14.078125 -1.484375 C 11.398438 -2.890625 9.289062 -4.96875 7.75 -7.71875 C 6.21875 -10.46875 5.453125 -13.796875 5.453125 -17.703125 L 5.453125 -42.953125 L 14.265625 -42.953125 L 14.265625 -19.03125 C 14.265625 -15.175781 15.222656 -12.222656 17.140625 -10.171875 C 19.066406 -8.117188 21.695312 -7.09375 25.03125 -7.09375 C 28.351562 -7.09375 30.988281 -8.117188 32.9375 -10.171875 C 34.882812 -12.222656 35.859375 -15.175781 35.859375 -19.03125 L 35.859375 -42.953125 Z M 44.75 -42.953125 "/></g></g></g></g></g><g transform="matrix(1, 0, 0, 1, 529, 353)"><g clip-path="url(#c14dd33148)"><g fill="#f9fafb" fill-opacity="1"><g transform="translate(0.926249, 83.059035)"><g><path d="M 27.75 -44.015625 C 31.15625 -44.015625 34.207031 -43.304688 36.90625 -41.890625 C 39.601562 -40.484375 41.710938 -38.390625 43.234375 -35.609375 C 44.753906 -32.828125 45.515625 -29.472656 45.515625 -25.546875 L 45.515625 0 L 36.625 0 L 36.625 -24.21875 C 36.625 -28.09375 35.65625 -31.0625 33.71875 -33.125 C 31.78125 -35.195312 29.132812 -36.234375 25.78125 -36.234375 C 22.425781 -36.234375 19.765625 -35.195312 17.796875 -33.125 C 15.835938 -31.0625 14.859375 -28.09375 14.859375 -24.21875 L 14.859375 0 L 5.890625 0 L 5.890625 -43.3125 L 14.859375 -43.3125 L 14.859375 -38.359375 C 16.328125 -40.140625 18.195312 -41.523438 20.46875 -42.515625 C 22.75 -43.515625 25.175781 -44.015625 27.75 -44.015625 Z M 27.75 -44.015625 "/></g></g></g><g fill="#f9fafb" fill-opacity="1"><g transform="translate(47.619522, 83.059035)"><g><path d="M 2.90625 -21.859375 C 2.90625 -26.203125 3.804688 -30.050781 5.609375 -33.40625 C 7.421875 -36.757812 9.882812 -39.363281 13 -41.21875 C 16.125 -43.082031 19.570312 -44.015625 23.34375 -44.015625 C 26.75 -44.015625 29.722656 -43.347656 32.265625 -42.015625 C 34.804688 -40.679688 36.835938 -39.019531 38.359375 -37.03125 L 38.359375 -43.3125 L 47.40625 -43.3125 L 47.40625 0 L 38.359375 0 L 38.359375 -6.453125 C 36.835938 -4.398438 34.765625 -2.691406 32.140625 -1.328125 C 29.523438 0.0234375 26.539062 0.703125 23.1875 0.703125 C 19.46875 0.703125 16.0625 -0.25 12.96875 -2.15625 C 9.875 -4.070312 7.421875 -6.742188 5.609375 -10.171875 C 3.804688 -13.609375 2.90625 -17.503906 2.90625 -21.859375 Z M 38.359375 -21.703125 C 38.359375 -24.679688 37.742188 -27.269531 36.515625 -29.46875 C 35.285156 -31.675781 33.671875 -33.351562 31.671875 -34.5 C 29.679688 -35.65625 27.535156 -36.234375 25.234375 -36.234375 C 22.929688 -36.234375 20.78125 -35.671875 18.78125 -34.546875 C 16.789062 -33.421875 15.179688 -31.769531 13.953125 -29.59375 C 12.722656 -27.414062 12.109375 -24.835938 12.109375 -21.859375 C 12.109375 -18.867188 12.722656 -16.242188 13.953125 -13.984375 C 15.179688 -11.734375 16.804688 -10.019531 18.828125 -8.84375 C 20.847656 -7.664062 22.984375 -7.078125 25.234375 -7.078125 C 27.535156 -7.078125 29.679688 -7.648438 31.671875 -8.796875 C 33.671875 -9.953125 35.285156 -11.644531 36.515625 -13.875 C 37.742188 -16.101562 38.359375 -18.710938 38.359375 -21.703125 Z M 38.359375 -21.703125 "/></g></g></g></g></g><g transform="matrix(1, 0, 0, 1, 366, 98)"><g clip-path="url(#a91f56655b)"><g clip-path="url(#83235372f5)"><g transform="matrix(1, 0, 0, 1, 2, 2)"><g clip-path="url(#703bd15ad4)"><g clip-path="url(#984a9022c1)"><g mask="url(#a0e2640926)"><g transform="matrix(1, 0, 0, 1, 0, 0.000000000000042633)"><g clip-path="url(#7dac043ce5)"><g clip-path="url(#3e76ef06dd)"><path fill="url(#2cb02151e8)" d="M 0.378906 20.949219 L 0.378906 670.441406 L 968.09375 670.441406 L 968.09375 20.949219 Z M 0.378906 20.949219 " fill-rule="nonzero"/></g></g></g></g></g></g></g></g></g></g></svg>