<svg width="50" height="40" viewBox="0 0 50 40" fill="none" xmlns="http://www.w3.org/2000/svg">
<g clip-path="url(#clip0_53_320)">
<path d="M47.3084 36.3392L42.4624 28.2964H39.531V38.6171H41.6479V30.5637L46.5365 38.6171H49.4235V28.2964H47.3084V36.3392Z" fill="white"/>
<path d="M33.3595 34.0346H38.0015V32.5172H33.3595V29.7801H38.2587V28.2964H31.0297V38.6171H38.4344V37.0553H33.3595V34.0346Z" fill="white"/>
<path d="M4.62775 28.2964L0.0230713 38.6171H2.33694L3.36257 36.1761H8.51556L9.4986 38.6171H12.0148L7.44024 28.2964H4.62598H4.62775ZM4.01024 34.6586L5.99407 30.0177L7.9016 34.6586H4.01024Z" fill="white"/>
<path d="M20.0548 29.0852C19.3184 28.5587 18.181 28.2964 16.6496 28.2964H13.1362V38.6171H15.4661V34.687H16.7313C18.1402 34.687 19.2332 34.4087 20.0051 33.852C20.7752 33.2972 21.162 32.5137 21.162 31.5068C21.162 30.4165 20.793 29.61 20.053 29.0852H20.0548ZM18.1721 32.7902C17.7693 33.088 17.1837 33.2369 16.4243 33.2369H15.4661V29.7518H16.5574C17.2671 29.7518 17.8172 29.906 18.2005 30.2109C18.5873 30.5158 18.7807 30.9466 18.7807 31.5103C18.7807 32.074 18.5784 32.4942 18.1721 32.792V32.7902Z" fill="white"/>
<path d="M26.8615 32.4445C26.7941 32.4144 26.7001 32.3754 26.5776 32.3204C25.3124 31.7655 24.679 31.2586 24.679 30.8101C24.679 30.4449 24.8546 30.1648 25.2042 29.9645C25.5538 29.7642 26.0435 29.6613 26.6681 29.6613C27.0975 29.6613 27.5287 29.7057 27.9652 29.7925C28.4 29.8794 28.84 30.0106 29.2837 30.1843L29.4859 28.5623C29.3635 28.5357 29.1736 28.4878 28.9181 28.4258C27.9422 28.1882 27.1987 28.0695 26.6859 28.0695C25.3692 28.0695 24.3205 28.3371 23.5362 28.8743C22.7484 29.4114 22.3562 30.1187 22.3562 30.9962C22.3562 31.3543 22.4272 31.6929 22.5692 32.012C22.7076 32.331 22.9169 32.6164 23.1884 32.8699C23.5717 33.2263 24.2318 33.6233 25.1687 34.0594C25.2787 34.1091 25.3586 34.1445 25.41 34.1693C25.4526 34.1888 25.5218 34.2207 25.6088 34.2633C26.874 34.8642 27.5074 35.4173 27.5074 35.919C27.5074 36.3054 27.3105 36.6281 26.9219 36.8798C26.5297 37.1351 26.0205 37.2627 25.3923 37.2627C25.0197 37.2627 24.6098 37.2024 24.1626 37.0819C23.7101 36.9613 23.153 36.7575 22.4875 36.4721L22.2728 38.2377C22.3438 38.2625 22.4485 38.2927 22.5869 38.3317C23.9035 38.6809 24.8387 38.8546 25.3923 38.8546C26.748 38.8546 27.8428 38.5515 28.675 37.947C29.5072 37.3407 29.9225 36.5607 29.9225 35.607C29.9225 34.9546 29.706 34.3945 29.2766 33.9265C28.8454 33.4603 28.0398 32.9639 26.858 32.441L26.8615 32.4445Z" fill="white"/>
<path d="M11.9012 21.1116C13.5213 17.513 16.6301 14.1111 18.7789 12.0637L18.7825 6.82886L0 25.8872H12.1283C11.2659 24.7261 11.2287 22.6077 11.9012 21.1133V21.1116Z" fill="white"/>
<path d="M18.637 18.8195C17.4393 19.5108 17.0294 21.0424 17.7214 22.239C18.4134 23.4356 19.9466 23.8451 21.1443 23.1537C22.3421 22.4624 22.752 20.9308 22.0599 19.7342C21.3679 18.5376 19.8348 18.1281 18.637 18.8195Z" fill="white"/>
<path d="M22.1824 19.0393L22.697 17.1478L21.0769 18.254C21.4939 18.4242 21.8736 18.6883 22.1824 19.0393Z" fill="white"/>
<path d="M18.4507 18.4312C18.5519 18.3727 18.653 18.3231 18.7577 18.277L17.1163 17.2028L17.6682 19.0836C17.8847 18.8301 18.1455 18.6067 18.4507 18.4312Z" fill="white"/>
<path d="M20.5943 18.1034L19.8969 16.2704L19.2368 18.1158C19.6875 18.0059 20.1524 18.0041 20.5925 18.1016L20.5943 18.1034Z" fill="white"/>
<path d="M22.5283 19.5215C22.7501 19.9044 22.8761 20.3175 22.9151 20.7305L24.4447 19.502L22.4822 19.4453C22.4981 19.4701 22.5141 19.4949 22.5283 19.5215Z" fill="white"/>
<path d="M24.4749 22.4323L22.9205 21.2357C22.8868 21.6913 22.7466 22.1345 22.5142 22.528L24.4749 22.4323Z" fill="white"/>
<path d="M21.4389 23.5951C21.3395 23.6536 21.2366 23.7032 21.1337 23.7493L22.775 24.8236L22.2214 22.9427C22.0049 23.1962 21.7441 23.4196 21.4371 23.5951H21.4389Z" fill="white"/>
<path d="M17.7089 22.9872L17.1943 24.8787L18.8144 23.7725C18.3974 23.6023 18.0177 23.3382 17.7089 22.989V22.9872Z" fill="white"/>
<path d="M19.2971 23.9231L19.9945 25.756L20.6546 23.9106C20.2039 24.0206 19.739 24.0223 19.2989 23.9248L19.2971 23.9231Z" fill="white"/>
<path d="M17.3611 22.5049C17.1393 22.122 17.0133 21.7089 16.9743 21.2959L15.4447 22.5244L17.4072 22.5811C17.3913 22.5563 17.3753 22.5315 17.3611 22.5067V22.5049Z" fill="white"/>
<path d="M17.3753 19.4984L15.4146 19.5941L16.969 20.7907C17.0027 20.3351 17.1429 19.892 17.3753 19.4984Z" fill="white"/>
<path d="M49.4484 25.8873L40.6188 16.928L40.6418 16.9422L39.4352 12.4555L43.032 9.50391L38.3847 9.26282L36.6884 4.93919L36.5943 5.17851L36.5801 5.14128L35.826 7.06644L34.9654 9.26282L33.1608 9.35678L24.7233 0.799927L21.1851 4.38966L21.1886 12.0637C23.3392 14.1129 26.4481 17.5148 28.0663 21.1116C28.7389 22.606 28.7016 24.7244 27.841 25.8855H49.4466L49.4484 25.8873ZM36.8889 7.24017L37.8755 9.75564H37.9092L37.9518 9.86377L41.3126 10.0375L40.7714 10.4807L38.6811 12.1949L39.382 14.8061L39.5754 15.5276L36.6884 13.6999L36.6227 13.7407L36.5801 13.7123L34.2769 15.1713L33.7694 15.4921L34.6478 12.225L31.9825 10.0393L35.4267 9.86023L36.6724 6.68354L36.8889 7.23662V7.24017Z" fill="white"/>
</g>
<defs>
<clipPath id="clip0_53_320">
<rect width="49.4484" height="40" fill="white"/>
</clipPath>
</defs>
</svg>
