<svg width="158" height="28" viewBox="0 0 158 28" fill="none" xmlns="http://www.w3.org/2000/svg">
<path d="M90.848 7.89132L89.0505 9.01383L87.999 7.35188L89.7965 6.22144L90.848 7.89132Z" fill="#0E3192"/>
<path d="M66.5169 7.89132L64.7234 9.01383L63.6719 7.35188L65.4654 6.22144L66.5169 7.89132Z" fill="#0E3192"/>
<path d="M56.5414 16.7961C56.5414 15.3919 56.585 14.2932 56.6208 13.496L56.6565 12.3814C56.6565 10.7869 55.8192 10.1364 53.7758 10.1364C50.7522 10.1364 49.3992 11.1756 49.3992 12.2029C49.3992 12.7384 49.7721 13.1112 50.3078 13.1112C51.022 13.1112 51.268 12.5321 51.4664 12.0641C51.5418 11.8856 51.6133 11.7071 51.7005 11.5841C51.9624 11.2113 52.4465 11.005 53.0219 11.005C54.3114 11.005 54.855 11.6 54.855 12.9922C54.855 14.2813 54.5098 14.4796 52.883 15.1936C50.5379 16.2209 49.1016 16.923 49.1016 18.4778C49.1016 19.8066 50.4427 20.9291 52.0259 20.9291C53.256 20.9291 54.236 20.2945 54.855 19.168C54.8947 19.7788 54.978 20.3223 55.1368 20.7467L55.1566 20.7982L57.4699 20.6396L57.2794 20.5245C56.7874 20.2191 56.5414 18.9657 56.5414 16.7961ZM54.7876 15.2491C54.7876 15.4276 54.7876 16.7286 54.7876 16.7286C54.7876 18.581 54.1567 19.4457 52.7957 19.4457C51.7839 19.4457 51.1014 18.8785 51.1014 18.0415C51.1014 16.7326 52.4862 16.1654 54.7876 15.2491Z" fill="#0E3192"/>
<path d="M41.0509 5.71777C40.3406 5.71777 39.5986 5.77727 38.813 5.84073C37.9242 5.91213 37.0076 5.99146 36.0156 5.99146H34.1943L34.3094 6.11442C34.857 6.68163 34.857 9.06548 34.857 13.0161V13.9442C34.857 17.7877 34.8371 19.9852 34.3094 20.5325L34.1943 20.6515H35.9045L37.5313 20.6991L39.801 20.7666C44.7371 20.7666 47.8043 17.6569 47.8043 12.6512C47.8043 8.30788 45.2767 5.71777 41.0509 5.71777ZM45.3481 13.377C45.3481 17.3752 43.261 19.6679 39.6185 19.6679C37.6901 19.6679 37.1623 19.4854 37.0631 18.7794C36.9917 18.2756 36.9481 16.8834 36.9481 14.9597V11.6556C36.9481 9.17257 37.0036 7.75257 37.1227 7.04654C37.8091 6.90375 38.5035 6.82839 39.301 6.82839C43.1459 6.83235 45.3481 9.2162 45.3481 13.377Z" fill="#0E3192"/>
<path d="M61.5052 7.89132L59.7117 9.01383L58.6562 7.35188L60.4537 6.22144L61.5052 7.89132Z" fill="#0E3192"/>
<path d="M61.1165 17.7441V16.455C61.1165 13.2977 61.1363 11.0289 61.2315 10.2078L61.2434 10.1086L61.1442 10.1285C60.5133 10.2673 59.811 10.3506 58.9381 10.3744L58.7119 10.3784L58.9024 10.5013C59.323 10.779 59.3468 12.0403 59.3468 14.2496V17.6925C59.3468 19.1958 59.315 20.2073 58.9024 20.5127L58.7278 20.6436H61.7275L61.5688 20.5167C61.1482 20.1954 61.1165 19.1641 61.1165 17.7441Z" fill="#0E3192"/>
<path d="M66.1322 17.7441V16.455C66.1322 13.2977 66.148 11.0289 66.2433 10.2078L66.2552 10.1086L66.1599 10.1285C65.5251 10.2673 64.8267 10.3506 63.9498 10.3744L63.7236 10.3784L63.9141 10.5013C64.3387 10.779 64.3585 12.0403 64.3585 14.2496V17.6925C64.3585 19.1958 64.3268 20.2073 63.9141 20.5127L63.7395 20.6436H66.7432L66.5805 20.5167C66.1599 20.1954 66.1322 19.1641 66.1322 17.7441Z" fill="#0E3192"/>
<path d="M73.5121 19.533C71.5797 19.533 70.2346 17.9147 70.2346 15.5943C70.2346 12.8852 71.5678 11.0685 73.5597 11.0685C74.6032 11.0685 75.3333 11.6754 75.7301 12.8733L75.873 12.8534L75.9484 10.422L75.8888 10.4061C75.2222 10.2237 74.5159 10.1324 73.6708 10.1324C70.4568 10.1324 68.2109 12.433 68.2109 15.7291C68.2109 18.7357 70.2028 20.9212 72.9486 20.9212C75.0119 20.9212 76.3491 19.9217 76.3491 18.3827V18.1209L76.2221 18.2915C75.627 19.0848 74.6429 19.533 73.5121 19.533Z" fill="#0E3192"/>
<path d="M85.9244 18.2002V15.6854C85.9244 13.8489 85.9045 12.4964 85.6942 11.834C85.3411 10.7392 84.4919 10.1324 83.2936 10.1324C81.9564 10.1324 81.0319 10.6123 80.0637 11.8102C80.0756 11.4254 80.2423 4.61499 80.2423 4.61499L80.155 4.63086L77.7504 5.04337L77.8774 5.14253C78.298 5.47175 78.3258 6.5308 78.3258 8.11739V9.9499L78.3536 14.0552L78.3734 16.566C78.3734 18.8864 78.2901 20.2786 77.8854 20.5166L77.6592 20.6475H80.7264L80.5478 20.5166C80.1352 20.2112 80.1034 19.1997 80.1034 17.6964V15.5268C80.1034 13.0398 80.1034 11.5405 82.2977 11.5405C83.6666 11.5405 84.1507 12.1434 84.1507 13.8489C84.1507 17.2403 84.119 19.1878 84.0396 20.5721L84.0356 20.6514H86.5116L86.3767 20.5285C85.9521 20.1437 85.9244 19.3941 85.9244 18.2002Z" fill="#0E3192"/>
<path d="M90.4553 17.7441V16.455C90.4553 13.2977 90.4751 11.0289 90.5704 10.2078L90.5863 10.1086L90.4831 10.1285C89.8522 10.2673 89.1499 10.3506 88.277 10.3744L88.0508 10.3784L88.2412 10.5013C88.6658 10.779 88.6856 12.0403 88.6856 14.2496V17.6925C88.6856 19.1958 88.6539 20.2073 88.2373 20.5127L88.0587 20.6436H91.0664L90.9037 20.5167C90.491 20.1954 90.4553 19.1641 90.4553 17.7441Z" fill="#0E3192"/>
<path d="M93.8799 14.5431L92.8125 15.9274L92.8799 15.971C93.0109 16.0464 93.1617 16.0464 93.3045 16.0464H98.1255L99.2008 14.5431H99.062H93.8799Z" fill="#0E3192"/>
<path d="M106.049 12.2268C106.049 12.2228 105.903 12.1474 105.903 12.1474C104.248 11.2788 102.939 10.5886 102.939 9.06944C102.939 7.70498 104.085 6.85218 105.926 6.85218C107.283 6.85218 108.295 7.34799 108.855 8.29201L108.986 8.51414V5.82884H108.347L108.085 5.81694L107.914 5.809L107.268 5.78124L105.514 5.71777C102.697 5.71777 100.728 7.3004 100.728 9.57318C100.728 11.7785 102.343 12.6591 104.577 13.8808L104.887 14.0553C106.589 14.9716 107.276 15.8481 107.276 17.0738C107.276 18.6564 106.085 19.767 104.379 19.767C102.629 19.767 101.244 18.9777 100.359 17.4903L100.229 17.2642V20.0447L100.272 20.0605C101.851 20.6515 103.133 20.9252 104.312 20.9252C107.264 20.9252 109.573 18.9658 109.573 16.459C109.577 14.7772 108.557 13.5516 106.049 12.2268Z" fill="#0E3192"/>
<path d="M118.167 16.7961C118.167 15.3919 118.215 14.2932 118.247 13.496L118.282 12.3814C118.282 10.7869 117.449 10.1364 115.402 10.1364C112.378 10.1364 111.025 11.1756 111.025 12.2029C111.025 12.7384 111.398 13.1112 111.934 13.1112C112.648 13.1112 112.894 12.5321 113.089 12.0641C113.164 11.8856 113.235 11.7071 113.327 11.5841C113.588 11.2113 114.069 11.005 114.648 11.005C115.93 11.005 116.481 11.6 116.481 12.9922C116.481 14.2813 116.132 14.4796 114.505 15.1936C112.164 16.2209 110.724 16.923 110.724 18.4778C110.724 19.8066 112.061 20.9291 113.652 20.9291C114.874 20.9291 115.862 20.2945 116.477 19.168C116.513 19.7788 116.6 20.3223 116.755 20.7467L116.771 20.7982L119.088 20.6396L118.898 20.5245C118.409 20.2191 118.167 18.9657 118.167 16.7961ZM116.418 15.2491C116.418 15.4276 116.418 16.7286 116.418 16.7286C116.418 18.581 115.783 19.4457 114.426 19.4457C113.41 19.4457 112.727 18.8785 112.727 18.0415C112.727 16.7326 114.116 16.1654 116.418 15.2491Z" fill="#0E3192"/>
<path d="M128.563 18.2875V15.3443C128.563 12.1117 128.44 10.1284 125.936 10.1284C124.639 10.1284 123.691 10.6123 122.81 11.6912C122.81 11.6436 122.81 11.5841 122.81 11.5841C122.81 11.1597 122.77 10.767 122.695 10.4338L122.679 10.3704L120.366 10.6242L120.52 10.7353C120.945 11.0288 120.965 12.4131 120.965 14.8208V17.7004C120.965 19.2037 120.933 20.2152 120.52 20.5206L120.346 20.6515H123.361L123.187 20.5206C122.77 20.2152 122.742 19.2037 122.742 17.7004V15.5308C122.742 13.0438 122.742 11.5444 124.937 11.5444C126.71 11.5444 126.79 12.4686 126.79 14.3924V14.9397C126.79 17.1808 126.758 18.9181 126.675 20.5761L126.671 20.6515H129.162L129.012 20.5285C128.583 20.1596 128.563 19.4377 128.563 18.2875Z" fill="#0E3192"/>
<path d="M133.023 17.7004C133.023 17.7004 133.023 15.265 133.023 15.1659C133.111 15.1659 133.269 15.2769 133.456 15.5823C133.456 15.5863 136.809 20.6475 136.809 20.6475H139.205L139.233 20.5087C138.789 20.3302 138.166 19.4378 137.221 18.0892C136.519 17.0856 135.65 15.8402 134.5 14.3765C134.837 14.0989 135.103 13.8331 135.313 13.6269C135.317 13.6229 138.352 10.3783 138.352 10.3783H135.769L135.845 10.4894C135.96 10.6639 136.011 10.8503 136.011 11.0844C136.011 11.723 135.079 13.016 133.027 14.4757C133.027 14.198 133.027 4.61108 133.027 4.61108L132.944 4.62298L130.448 4.99187L130.607 5.09499C131.17 5.47577 131.278 6.60622 131.278 8.70448L131.27 10.3625L131.258 12.8019L131.27 15.3563L131.278 17.0618C131.278 19.1085 131.202 20.2668 130.809 20.5127L130.599 20.6436H133.646L133.468 20.5127C133.055 20.2152 133.023 19.2037 133.023 17.7004Z" fill="#0E3192"/>
<path d="M148.156 10.3824H145.522L145.581 10.4895C145.712 10.7314 145.776 10.9972 145.776 11.2946C145.776 12.1276 145.101 14.7693 143.613 18.8071C143.506 18.4224 142.526 14.8724 142.526 14.8724C141.645 11.6001 141.28 10.2515 140.748 10.2515H140.546C140.534 10.2515 138.975 10.43 138.975 10.43L138.693 10.4617L138.955 10.5688C139.383 10.7393 139.76 11.7905 140.34 13.4921C141.8 17.7957 142.284 20.362 142.284 20.6714C142.284 21.5202 141.72 23.1346 140.486 24.6577C139.788 25.5343 139.121 25.6255 137.868 25.6255L137.491 25.6176L136.872 25.6017C136.11 25.6017 135.646 25.6334 135.646 26.0817C135.646 26.6489 136.419 27.2637 137.665 27.2637C140.609 27.2637 142.403 24.1183 144.684 18.3153L145.827 15.3365C146.704 13.0082 147.335 11.3264 148.045 10.4974L148.156 10.3824Z" fill="#0E3192"/>
<path d="M153.12 10.1324C150.025 10.1324 147.95 12.3814 147.95 15.7291C147.95 19.0292 149.668 20.9212 152.664 20.9212C155.751 20.9212 157.739 18.581 157.739 14.9636C157.743 11.9372 156.017 10.1324 153.12 10.1324ZM153.164 19.9177C151.168 19.9177 149.93 18.1209 149.93 15.2333C149.93 12.5361 150.902 11.1161 152.736 11.1161C154.525 11.1161 155.767 12.9407 155.767 15.5546C155.763 18.4462 154.89 19.9177 153.164 19.9177Z" fill="#0E3192"/>
<path d="M24.0525 5.46394C24.3699 6.47143 24.5405 7.54634 24.5405 8.65695C24.5405 14.5115 19.7909 19.2593 13.9343 19.2593C8.07765 19.2593 3.32806 14.5115 3.32806 8.65695C3.32806 6.88791 3.76056 5.21802 4.53034 3.75439C1.89961 6.17394 0.25293 9.64461 0.25293 13.5C0.25293 20.8182 6.18892 26.752 13.5097 26.752C20.8305 26.752 26.7665 20.8182 26.7665 13.5C26.7705 10.4815 25.7547 7.69707 24.0525 5.46394Z" fill="url(#paint0_radial_1176_2468)"/>
<path d="M11.4305 3.55602C13.0414 4.18669 16.1086 5.88831 17.9656 6.19373C20.6519 6.64194 22.2906 6.28892 24.0445 5.4639C21.6201 2.29469 17.8029 0.251953 13.5057 0.251953C10.0417 0.251953 6.89118 1.58072 4.53027 3.75435C6.69278 2.84603 8.94259 2.58027 11.4305 3.55602Z" fill="url(#paint1_radial_1176_2468)"/>
<defs>
<radialGradient id="paint0_radial_1176_2468" cx="0" cy="0" r="1" gradientUnits="userSpaceOnUse" gradientTransform="translate(13.513 13.5094) scale(13.2818 13.277)">
<stop offset="0.65" stop-color="#34AECF"/>
<stop offset="0.6958" stop-color="#33AACD"/>
<stop offset="0.7389" stop-color="#319FC6"/>
<stop offset="0.7808" stop-color="#2C8EBB"/>
<stop offset="0.8221" stop-color="#2677AD"/>
<stop offset="0.8629" stop-color="#1E5C9B"/>
<stop offset="0.9033" stop-color="#183E87"/>
<stop offset="0.9427" stop-color="#0F2073"/>
<stop offset="0.95" stop-color="#0C1A6F"/>
</radialGradient>
<radialGradient id="paint1_radial_1176_2468" cx="0" cy="0" r="1" gradientUnits="userSpaceOnUse" gradientTransform="translate(13.5305 13.6041) scale(13.343 13.3382)">
<stop offset="0.75" stop-color="#FFFA01"/>
<stop offset="0.7708" stop-color="#EDF207"/>
<stop offset="0.8129" stop-color="#BCDD12"/>
<stop offset="0.8724" stop-color="#6FBA25"/>
<stop offset="0.9465" stop-color="#0B8C3D"/>
<stop offset="0.95" stop-color="#02893E"/>
</radialGradient>
</defs>
</svg>
