<?xml version="1.0" encoding="utf-8"?>
<!-- Generator: Adobe Illustrator 28.1.0, SVG Export Plug-In . SVG Version: 6.00 Build 0)  -->
<svg version="1.1" xmlns="http://www.w3.org/2000/svg" xmlns:xlink="http://www.w3.org/1999/xlink" x="0px" y="0px"
	 viewBox="0 0 1200 323" style="enable-background:new 0 0 1200 323;" xml:space="preserve">
<style type="text/css">
	.st0{fill:#0063BE;}
</style>
<g id="Layer_2">
</g>
<g id="Ebene_1">
	<g>
		<path class="st0" d="M223.9,320.8V204c0-90.4-80-54.5-80-117.6c0-12.1,5.8-34.7,5.8-48.2c0-25.7-11.8-36.2-11.8-36.2H90.8
			c0,0,11.8,10.5,11.8,36.2c0,13.5-5.8,35.7-5.8,48.2c0,63.4,79.9,28,79.9,117.6v116.9H223.9L223.9,320.8z"/>
		<path class="st0" d="M135.2,320.8V204c0-90.4-80.1-54.5-80.1-117.6c0-12.1,5.8-34.7,5.8-48.2C60.9,12.5,49.1,2,49.1,2H2
			c0,0,11.8,10.5,11.8,36.2C13.8,51.7,8,73.9,8,86.4C8,149.8,88,114.4,88,204v116.9H135.2L135.2,320.8z"/>
		<path class="st0" d="M311.3,320.8h-47.2V204c0-89.6-79.9-54.2-79.9-117.6c0-12.5,5.8-34.7,5.8-48.2c0-25.7-11.8-36.2-11.8-36.2h47
			c0,0,11.9,10.5,11.9,36.2c0,13.5-5.8,36.1-5.8,48.2c0,63.1,79.9,27.1,79.9,117.6V320.8L311.3,320.8z"/>
		<path class="st0" d="M503.8,320.9l-22.6-43.6l-11.9,14.3v29.3h-25.1v-98.1h25.1v37.4l29.2-37.4h30l-29.3,34.3l33.9,63.8H503.8
			L503.8,320.9L503.8,320.9z M607.6,320.9h26.8l-36.2-98.1h-24.7l-36.2,98.1h26.4l5.7-18.8h32.4L607.6,320.9L607.6,320.9
			L607.6,320.9z M575.9,281.5l9.8-31.7l9.7,31.7H575.9L575.9,281.5L575.9,281.5z M690.3,320.9c23.6,0,36.3-11.5,36.3-31.7
			c0-10.9-5.5-17.9-14-21.6c6.6-3.9,11.3-9.2,11.3-19.2c0-16.6-10.6-25.6-33.2-25.6h-46.7v98.1H690.3L690.3,320.9L690.3,320.9z
			 M689.9,243.1c7.2,0,9.7,3.4,9.7,8.3c0,4.9-2.5,8.3-9.4,8.3h-22.3v-16.6H689.9L689.9,243.1L689.9,243.1z M691,279.3
			c7.4,0,11.1,3.8,11.1,10.4c0,6.3-3.5,10.8-11.2,10.8h-23v-21.2H691L691,279.3L691,279.3z M742.7,320.9h25.1v-98.1h-25.1V320.9
			L742.7,320.9L742.7,320.9z"/>
		<path class="st0" d="M468.9,97.4v15.2h34.7v21.7h-34.7v39.4h-24.7V75.5h73.2v21.9H468.9L468.9,97.4L468.9,97.4z M581.9,173.8h27.8
			L590.3,136c11.4-4.9,18.1-14,18.1-28.8c0-22.4-15.3-31.7-36.8-31.7H527v98.3h24.4v-33.8h13.9L581.9,173.8L581.9,173.8L581.9,173.8
			z M571,96.7c8.7,0,12.6,4.1,12.6,11.1c0,7.6-3.9,11.6-12.9,11.6h-19.2V96.7H571L571,96.7L571,96.7z M622.6,173.8h74.3v-21.6h-49.7
			v-19.2h30.9v-21.3h-30.9V97.1h46.3V75.5h-70.8V173.8L622.6,173.8L622.6,173.8z M742,175.3c24.7,0,40-10.4,40-31.6
			c0-19.4-13-26.2-34.8-31.3c-13.6-3.2-17.3-5-17.3-9.5c0-3.8,2.4-6.9,11.4-6.9c9.7,0,18,3.4,25.8,9.1l13.3-18.4
			c-10-8.1-21.7-12.8-38-12.8c-22.2,0-37.5,11.9-37.5,30.3c0,19.5,11.8,25.7,33.7,30.7c14.9,3.5,18.4,5.9,18.4,10.5
			c0,5.5-3.9,7.7-14.2,7.7c-9.3,0-20.8-4.4-27.8-10l-13.3,18.1C711,169.6,726,175.3,742,175.3L742,175.3L742,175.3z M795.3,173.8
			h74.3v-21.6h-49.7v-19.2h31v-21.3h-31V97.1h46.3V75.5h-70.8V173.8L795.3,173.8L795.3,173.8z M944.8,173.8h20.6V75.5h-23.9v53.6
			l-37.9-53.6h-22.3v98.3h23.9v-56.3L944.8,173.8L944.8,173.8L944.8,173.8z M983.3,173.8h25.1V75.5h-25.1V173.8L983.3,173.8
			L983.3,173.8z M1066.6,175.3c24.7,0,42.1-13.7,42.1-43.9V75.5h-25v55.9c0,13.3-5.6,21.5-16.8,21.5c-11.4,0-17-8.3-17-21.5V75.5
			h-25.1v55.9C1024.7,161.7,1042.2,175.3,1066.6,175.3L1066.6,175.3L1066.6,175.3z M1157.9,175.3c24.7,0,40-10.4,40-31.6
			c0-19.4-13-26.2-34.8-31.3c-13.6-3.2-17.3-5-17.3-9.5c0-3.8,2.4-6.9,11.4-6.9c9.7,0,18,3.4,25.8,9.1l13.3-18.4
			c-10-8.1-21.8-12.8-38-12.8c-22.2,0-37.5,11.9-37.5,30.3c0,19.5,11.8,25.7,33.7,30.7c14.9,3.5,18.4,5.9,18.4,10.5
			c0,5.5-3.9,7.7-14.2,7.7c-9.3,0-20.8-4.4-27.8-10l-13.3,18.1C1126.8,169.6,1141.9,175.3,1157.9,175.3L1157.9,175.3L1157.9,175.3z"
			/>
	</g>
</g>
</svg>
