<svg xmlns="http://www.w3.org/2000/svg" width="107" height="46.813" viewBox="0 0 107 46.813">
<g id="Grupo_131" transform="translate(-278 105)">
<path d="M147.019,20.391a1.877,1.877,0,0,0-.066.312,10.965,10.965,0,0,1-8.306,10.135,11.218,11.218,0,0,1-3.211.318,10.781,10.781,0,0,1-10.16-8.236,12.117,12.117,0,0,1-.365-3.7,11.192,11.192,0,0,1,3.168-7.418A10.6,10.6,0,0,1,133.555,8.8a10.864,10.864,0,0,1,13.118,8.175,9.1,9.1,0,0,1,.281,2.045,1.34,1.34,0,0,0,.064.285v1.089M135.963,27.32c.236,0,.473.013.707,0a5.16,5.16,0,0,0,.618-.1,6.443,6.443,0,0,0,4.728-3.488A8.221,8.221,0,0,0,142.6,17.5a6.835,6.835,0,0,0-8.046-5,6.436,6.436,0,0,0-4.71,3.563,8.278,8.278,0,0,0-.549,6.192,6.742,6.742,0,0,0,6.665,5.07" transform="translate(237.982 -107.736)" fill="#fff"></path>
<path d="M21.659.367v3.99c-.093.014-.171.033-.25.037-.743.042-1.488.05-2.227.128a22.651,22.651,0,0,0-8.989,2.724A13.441,13.441,0,0,0,6.2,10.617a10.1,10.1,0,0,0-2.075,4.762A8.951,8.951,0,0,0,4.362,19.5a6.914,6.914,0,0,0,4.989,4.764,8.468,8.468,0,0,0,3.153.266,7.372,7.372,0,0,0,2.53-.692,4.708,4.708,0,0,0,2.627-3.314,13.568,13.568,0,0,0,.321-3.106c.009-.862,0-1.725,0-2.587v-.317c.217-.061,3.454-.084,3.987-.031a2.183,2.183,0,0,1,.02.228q0,.612,0,1.225c0,4.43.006,8.861,0,13.292a12.525,12.525,0,0,1-.953,4.91A9.864,9.864,0,0,1,14.59,39.92a10.671,10.671,0,0,1-2.692.5c-.734.035-1.471.079-2.2.041A11.961,11.961,0,0,1,3.69,38.684a8.72,8.72,0,0,1-1.84-1.575l2.434-2.937c.063.052.105.084.144.12a8.024,8.024,0,0,0,3.709,1.9,10.61,10.61,0,0,0,2.971.264,8.442,8.442,0,0,0,3.414-.81,5.969,5.969,0,0,0,3.08-3.67,9.331,9.331,0,0,0,.427-2.733c.016-.972,0-1.943,0-2.915,0-.079-.012-.157-.021-.283a2.082,2.082,0,0,0-.194.139,8.217,8.217,0,0,1-4.5,2.137,11.682,11.682,0,0,1-2.5.152,10.942,10.942,0,0,1-8.585-4.353A10.314,10.314,0,0,1,.219,19.448,14.046,14.046,0,0,1,4.211,6.776a18.968,18.968,0,0,1,5.954-4A27.049,27.049,0,0,1,16.1.942,27.542,27.542,0,0,1,19.248.5c.732-.054,1.465-.1,2.2-.147.061,0,.123.006.212.01" transform="translate(278 -105.114)" fill="#fff"></path>
<path d="M91.851,9.345c.058-.064.118-.125.173-.191a9.034,9.034,0,0,1,5.022-3.11A9.59,9.59,0,0,1,99.8,5.833a10.552,10.552,0,0,1,9.267,6.741,11.876,11.876,0,0,1,.839,4.029,11.473,11.473,0,0,1-1.253,5.867,10.707,10.707,0,0,1-7.481,5.723,10.6,10.6,0,0,1-2.76.229,11.055,11.055,0,0,1-5.424-1.576,10.484,10.484,0,0,1-4.5-5.727,12.368,12.368,0,0,1-.668-4.035q0-8.363,0-16.724V.023c.451-.041.883-.014,1.314-.019s.873,0,1.308,0h1.331v9.31l.075.032M105.859,17.1a9,9,0,0,0-.334-2.355A6.868,6.868,0,0,0,97.6,9.736a6.5,6.5,0,0,0-4.242,2.621A7.525,7.525,0,0,0,91.941,16.1a8.6,8.6,0,0,0,.34,3.629,6.839,6.839,0,0,0,7.908,4.753,6.429,6.429,0,0,0,4.351-2.819,8.055,8.055,0,0,0,1.318-4.565" transform="translate(249.859 -104.999)" fill="#fff"></path>
<path d="M72.446,20.012a11.247,11.247,0,0,1-2.1,6.571A10.645,10.645,0,0,1,63.827,30.9a10.967,10.967,0,0,1-2.947.259,10.791,10.791,0,0,1-10.189-8.341,11.952,11.952,0,0,1-.319-3.837A11.022,11.022,0,0,1,54.9,10.615a10.465,10.465,0,0,1,4.391-1.876,10.994,10.994,0,0,1,2.246-.2,10.772,10.772,0,0,1,10.541,8.272,12.862,12.862,0,0,1,.364,3.2m-4.065-.041a8.68,8.68,0,0,0-.361-2.6,6.851,6.851,0,0,0-8.012-4.879,6.44,6.44,0,0,0-4.821,3.783,8.333,8.333,0,0,0-.29,6.44,6.692,6.692,0,0,0,2.8,3.576,6.827,6.827,0,0,0,5.015.929,6.469,6.469,0,0,0,4.682-3.353,7.991,7.991,0,0,0,.986-3.9" transform="translate(261.872 -107.736)" fill="#fff"></path>
<path d="M39.155.032h3.912V28.01a37.134,37.134,0,0,1-3.9.019c-.051-.2-.069-27.59-.014-28" transform="translate(265.465 -105.01)" fill="#fff"></path>
<path d="M114.438,59.179h-2.194c-.005-.1-.014-.191-.014-.279,0-2.279-.005-4.558,0-6.837a3.641,3.641,0,0,1,3.013-3.707,4.436,4.436,0,0,1,3.512.833,3.358,3.358,0,0,1,.962.833c.044.056.094.107.159.181.064-.065.122-.118.171-.177a3.846,3.846,0,0,1,2.459-1.378,4.276,4.276,0,0,1,2.7.393,3.514,3.514,0,0,1,1.912,2.718,5.049,5.049,0,0,1,.053.758q.006,3.337,0,6.673v.309h-2.209v-.327q0-3.227,0-6.455a2.507,2.507,0,0,0-.164-.959,1.7,1.7,0,0,0-1.312-1.067,2.235,2.235,0,0,0-1.434.162,1.775,1.775,0,0,0-1.043,1.46,4.615,4.615,0,0,0-.029.6q0,3.091,0,6.183v.366a12.864,12.864,0,0,1-2.177.031c-.009-.114-.026-.237-.026-.359,0-2.088,0-4.176,0-6.264a3.5,3.5,0,0,0-.074-.782,1.8,1.8,0,0,0-1.478-1.388,2.263,2.263,0,0,0-1.106.014,1.71,1.71,0,0,0-1.318,1.435,3.286,3.286,0,0,0-.051.6q-.005,3.187,0,6.373Z" transform="translate(242.04 -120.462)" fill="#fff"></path>
<path d="M40.719,57.792c-.016.358-.005.717-.007,1.076s0,.744,0,1.117v2.166a8.3,8.3,0,0,1-2.034.033c-.006-.071-.019-.15-.019-.228,0-2.813-.024-5.627.011-8.44a5.309,5.309,0,0,1,2.046-4.27,5.172,5.172,0,0,1,2.661-1.079,5.449,5.449,0,0,1,3.151.488,5.354,5.354,0,0,1,3,3.976,6.051,6.051,0,0,1-.543,4,4.877,4.877,0,0,1-3.765,2.691A5.181,5.181,0,0,1,43,59.225a4.151,4.151,0,0,1-2.029-1.259c-.059-.066-.122-.129-.183-.193l-.074.02m3.407-.46a3.067,3.067,0,0,0,2.934-1.955,4.357,4.357,0,0,0,.174-2.722,3.136,3.136,0,0,0-3.561-2.443,3,3,0,0,0-2.463,1.861,4.142,4.142,0,0,0-.084,3.157,3.089,3.089,0,0,0,3,2.1" transform="translate(265.616 -120.418)" fill="#fff"></path>
<path d="M149.518,59.135h-2.03c-.055-.453.007-.9-.044-1.416-.1.1-.157.145-.206.2a4.081,4.081,0,0,1-2.729,1.435,5.117,5.117,0,0,1-5.741-3.84,6,6,0,0,1,.466-4.544,5.16,5.16,0,0,1,3.8-2.762,5.374,5.374,0,0,1,4.831,1.392,5.147,5.147,0,0,1,1.537,2.94,8.245,8.245,0,0,1,.107,1.326c.013,1.643.005,3.286.005,4.928Zm-2.2-5.566a9.272,9.272,0,0,0-.173-.992,3.161,3.161,0,0,0-3.888-2.309,2.98,2.98,0,0,0-2.1,1.776,4.2,4.2,0,0,0-.237,2.717,3.118,3.118,0,0,0,3.219,2.568,3.043,3.043,0,0,0,2.6-1.446,4.262,4.262,0,0,0,.586-2.314" transform="translate(233.613 -120.415)" fill="#fff"></path>
<path d="M89.212,59.131H87.181c-.054-.445.009-.9-.037-1.35-.123-.014-.16.086-.213.147a4,4,0,0,1-2.359,1.364A5.14,5.14,0,0,1,78.5,55.627a6.068,6.068,0,0,1,.237-4.259,5.227,5.227,0,0,1,4.041-3.175,5.422,5.422,0,0,1,4.06.815,5.172,5.172,0,0,1,2.244,3.407,6.163,6.163,0,0,1,.12,1.188c.013,1.742.005,3.485.005,5.227Zm-2.175-5.378c-.051-.357-.075-.722-.158-1.072A3.152,3.152,0,0,0,83.311,50.2a2.982,2.982,0,0,0-2.4,1.734,4.166,4.166,0,0,0-.313,2.682,3.135,3.135,0,0,0,3.269,2.7,3.031,3.031,0,0,0,2.585-1.465,4.126,4.126,0,0,0,.589-2.106" transform="translate(252.933 -120.411)" fill="#fff"></path>
<path d="M69.217,57.921H67.007v-.334c0-2.033,0-4.067,0-6.1a3.8,3.8,0,0,0-.074-.81,1.914,1.914,0,0,0-1.6-1.547,3.24,3.24,0,0,0-1.666.086,2.1,2.1,0,0,0-1.545,2.042c-.016.862-.005,1.725-.006,2.587v4.073H59.951c-.057-.2-.076-13.16-.021-13.524A12.214,12.214,0,0,1,62.1,44.37c.004.606.012,1.22.018,1.833s0,1.232,0,1.89a1.143,1.143,0,0,0,.183-.1,4.141,4.141,0,0,1,2.785-.981,4.2,4.2,0,0,1,2.192.535,3.818,3.818,0,0,1,1.874,2.827,5.972,5.972,0,0,1,.067.948c.005,2.088,0,4.176,0,6.264Z" transform="translate(258.808 -119.205)" fill="#fff"></path>
<path d="M102.39,59.209H100.2a2.459,2.459,0,0,1-.024-.247c0-2.142,0-4.283.009-6.425a4.662,4.662,0,0,1,.468-2.024,3.705,3.705,0,0,1,2.635-2.042,7.1,7.1,0,0,1,1.978-.1c.172.008.2.045.2.249.005.444,0,.89,0,1.334v.525c-.219-.012-.4-.017-.577-.033a2.83,2.83,0,0,0-1.049.1,1.879,1.879,0,0,0-1.394,1.579,4.491,4.491,0,0,0-.062.811c-.005,1.978,0,3.956,0,5.935v.343" transform="translate(245.9 -120.49)" fill="#fff"></path>
</g>
</svg>
