<?xml version="1.0" encoding="utf-8"?>
<!-- Generator: Adobe Illustrator 27.0.0, SVG Export Plug-In . SVG Version: 6.00 Build 0)  -->
<svg width="1346" height="710" version="1.1" id="Camada_1" xmlns="http://www.w3.org/2000/svg" xmlns:xlink="http://www.w3.org/1999/xlink" x="0px" y="0px"
	 viewBox="287 233 1346 710" style="enable-background:new 0 0 1920 1080;" xml:space="preserve">
<style type="text/css">
	.st0{fill:#23C12E;}
</style>
<g>
	<path class="st0" d="M1281.8,408.1c-39.4-22.5-117.1-26.8-155.2,26.1V247.8h-77V662c0,1.8,0,3.5,0,5.1V681
		c0,14.5,9.8,27.4,23.9,30.7c24.6,5.9,50,9.5,76.1,10.5h35.6v-0.1c15.3,0,29.6-1.6,42.7-4.6C1380.4,683.8,1393.8,471.9,1281.8,408.1
		 M1190.1,672.6c-19.4,5.2-44.9,4.1-63.6-2.2L1127,501c-1.4-72.8,148.5-92,148.5,50.1C1275.5,623.8,1230.8,661.8,1190.1,672.6"/>
	<path class="st0" d="M942.1,408.1c-39.4-22.5-117.1-26.8-155.2,26.1V247.8h-77V662c0,1.8,0,3.5,0,5.1V681
		c0,14.5,9.8,27.4,23.9,30.7c24.6,5.9,50,9.5,76.1,10.5h35.6v-0.1c15.3,0,29.6-1.6,42.7-4.6C1040.8,683.8,1054.1,471.9,942.1,408.1
		 M850.4,672.6c-19.4,5.2-44.9,4.1-63.6-2.2l0.5-169.4c-1.4-72.8,148.5-92,148.5,50.1C935.9,623.8,891.1,661.8,850.4,672.6"/>
	<path class="st0" d="M1385.6,701.6c31.2,12.6,66.4,20.6,100.8,20.6c68.2,0,132.5-36,132.5-102.7c0-44.8-49.6-68.9-84.9-84.1
		c-50.5-21.8-85-37.4-83.2-67.5c3-51.2,130.2-7.1,145.6,4.7l-0.7-59.5c-19.3-9.9-55.7-20.4-86.3-20.4c-75.7,0-130,32.4-130.2,97.4
		c-0.4,87.2,163.8,98.4,160.3,151c-3.8,57.2-126.3,14.1-154-0.5V701.6z"/>
	<path class="st0" d="M379.1,643V247h-78V643v39c0,17.5,14.2,31.7,31.6,31.7h46.4h155.3V643H379.1z"/>
	<path class="st0" d="M652.6,392.4H576v321.7h76.5V392.4z M569.3,319.2c0-23.2,19.1-42.1,42.7-42.1c23.6,0,42.7,18.8,42.7,42.1
		c0,23.2-19.1,42.1-42.7,42.1C588.4,361.3,569.3,342.4,569.3,319.2"/>
	<path class="st0" d="M379.1,643V247h-78V643v39c0,17.5,14.2,31.7,31.6,31.7h46.4h155.3V643H379.1z"/>
	<path class="st0" d="M332,803c24.7,0,39.5,9.3,39.5,31.6c0,22.2-14.8,31.6-39.5,31.6c-4.5,0-10-0.3-15.8-0.8v35.1H302v-96.1
		C312.2,803.3,321.7,803,332,803 M332.2,854.4c20.2,0,24.7-8.8,24.7-19.8c0-11-4.5-19.6-24.7-19.6c-6.9,0-11.3,0.1-16.1,0.5v38.2
		C321.4,854.2,325.9,854.4,332.2,854.4"/>
	<path class="st0" d="M377.8,866.7c0-29,16.1-35.6,31.4-35.6c15.4,0,31.6,6.6,31.6,35.6c0,29.1-16.2,35.1-31.6,35.1
		C393.9,901.9,377.8,895.8,377.8,866.7 M426.7,866.7c0-18.8-6.3-24.4-17.4-24.4c-11.1,0-17.6,5.6-17.6,24.4
		c0,18.8,6.4,23.9,17.6,23.9C420.4,890.6,426.7,885.5,426.7,866.7"/>
	<path class="st0" d="M464.6,832c1.9,2.6,3.8,8.8,4,13.2c2.9-7.3,9.1-11.4,19.1-14.6c1.9,2.3,3.3,7.6,3.6,12.6
		c-16.1,6.5-22.6,7.3-22.6,17.3v39.9h-13.5v-67.7C458.7,832,461,831.9,464.6,832"/>
	<path class="st0" d="M497,867.4c0-28.3,15.2-36.2,30.9-36.2c6.9,0,12.5,1.9,16.7,5.1c0.8-1.5,1.6-3,2.5-4.3c3.6-0.1,5.9,0,9.5,0.8
		V927c-4.4,1.6-8.9,2.2-13.5,1.6v-34.7c-4.5,5.4-10.8,8-17.8,8C510.4,901.9,497,893.2,497,867.4 M529.1,890.9c6,0,10.8-2.2,14-5.4
		v-40.8c-3.3-1.5-8.1-2.9-12.9-2.9c-8.6,0-19.4,3.2-19.4,24.7C510.8,886.9,519.6,890.9,529.1,890.9"/>
	<path class="st0" d="M574.1,872.6l0.1-38.7c4.3-1.8,8.7-2.3,13.5-1.8l-0.1,38.3c0,15.1,4.9,20.2,15.1,20.2
		c10.2,0,15.1-5.1,15.1-20.2l-0.1-36.5c4.4-1.8,8.6-2.3,13.5-1.8l0.1,40.5c0,21.3-11.5,29.2-28.5,29.2
		C585.6,901.9,574,893.9,574.1,872.6"/>
	<path class="st0" d="M644.8,866.5c0-26.4,15.9-35.3,31.8-35.3c15.2,0,26.6,8.1,26.6,27c0,3.2-0.5,7.5-1.6,10.7h-43.1
		c0.7,14.1,6.3,21.8,21.7,21.8c6.7,0,13-0.6,20.9-4c0.5,4.4,0,8.4-1.1,11.3c-6.5,3-13,3.8-21.1,3.8
		C660.6,901.9,644.8,893.5,644.8,866.5 M690.2,858.8c1-11.5-4.3-17.6-13.9-17.6c-10.4,0-15.9,5.9-17.4,17.6H690.2z"/>
	<path class="st0" d="M745,898.3c-1.2-3.3-1.5-8.1-1-11.5c7.4,3.3,13.6,4.4,20.7,4.4c10.8,0,14.7-2.9,14.7-9.9
		c0-5.4-2.2-7.5-9.5-9.5l-10.2-2.7c-10-2.6-15.2-8.1-15.2-18.3c0-14.8,11.7-19.6,26.4-19.6c6.2,0,12.4,1,17.7,2.9
		c1.2,3.4,1.4,8,1,10.8c-7.5-2.6-13.3-3.3-18.3-3.3c-9.9,0-13.2,2.7-13.2,8.1c0,4.3,2.5,6.4,9.1,8.4l11,3.2
		c10,2.7,14.7,8.1,14.7,18.8c0,16.1-10.8,21.8-27.9,21.8C757.3,901.9,750.8,900.9,745,898.3"/>
	<path class="st0" d="M803,866.5c0-26.4,15.9-35.3,31.8-35.3c15.2,0,26.6,8.1,26.6,27c0,3.2-0.5,7.5-1.6,10.7h-43.1
		c0.7,14.1,6.3,21.8,21.7,21.8c6.7,0,13-0.6,20.9-4c0.5,4.4,0,8.4-1.1,11.3c-6.5,3-13,3.8-21.1,3.8C818.8,901.9,803,893.5,803,866.5
		 M848.5,858.8c1-11.5-4.3-17.6-13.9-17.6c-10.4,0-15.9,5.9-17.4,17.6H848.5z"/>
	<path class="st0" d="M918.5,814.3v18.3h18.7c0.7,3,0.6,7.5-0.8,11.3h-17.8v25.8c0,11.8,1.8,15.5,16.9,21.4c-0.7,4.4-2.6,8.6-4.9,11
		c-19.8-6.2-25.4-13-25.4-31.7v-53.5C909.4,814.4,913.8,813.8,918.5,814.3"/>
	<path class="st0" d="M961.9,832c1.9,2.6,3.8,8.8,4,13.2c2.9-7.3,9.1-11.4,19.1-14.6c1.9,2.3,3.3,7.6,3.6,12.6
		c-16.1,6.5-22.6,7.3-22.6,17.3v39.9h-13.5v-67.7C956,832,958.3,831.9,961.9,832"/>
	<path class="st0" d="M1036.9,893.5c-5.9,5.9-13,8.4-21.3,8.4c-12.2,0-22.1-4.9-22.1-18.8c0-11.7,7.1-16.2,18.7-19.4l24.2-6.7v-2.5
		c0-8.6-5.4-11.8-16.7-11.8c-6.2,0-13.9,1-22,4c-0.4-4.4-0.1-9.3,1.4-12.1c5.2-2.2,13.6-3.4,22.2-3.4c17.6,0,28.6,5.2,28.6,22.2
		v47.1c-2.3,0.5-5.9,0.8-10.2,1C1038.6,899.8,1037.6,896.5,1036.9,893.5 M1019.2,891.2c7.1,0,12.8-2.2,17.2-6v-17.8l-17.6,5.5
		c-7.1,2.2-11.5,3.7-11.5,10C1007.3,889.9,1012.9,891.2,1019.2,891.2"/>
	<path class="st0" d="M1079.4,814.3v18.3h18.7c0.7,3,0.6,7.5-0.8,11.3h-17.8v25.8c0,11.8,1.8,15.5,16.9,21.4
		c-0.7,4.4-2.6,8.6-4.9,11c-19.8-6.2-25.4-13-25.4-31.7v-53.5C1070.3,814.4,1074.7,813.8,1079.4,814.3"/>
	<path class="st0" d="M1154,893.5c-5.9,5.9-13,8.4-21.3,8.4c-12.2,0-22.1-4.9-22.1-18.8c0-11.7,7.1-16.2,18.7-19.4l24.2-6.7v-2.5
		c0-8.6-5.4-11.8-16.7-11.8c-6.2,0-13.9,1-22,4c-0.4-4.4-0.1-9.3,1.4-12.1c5.2-2.2,13.6-3.4,22.2-3.4c17.6,0,28.6,5.2,28.6,22.2
		v47.1c-2.3,0.5-5.9,0.8-10.2,1C1155.7,899.8,1154.7,896.5,1154,893.5 M1136.3,891.2c7.1,0,12.8-2.2,17.2-6v-17.8l-17.6,5.5
		c-7.1,2.2-11.5,3.7-11.5,10C1124.4,889.9,1130,891.2,1136.3,891.2"/>
	<path class="st0" d="M1258.2,894c-4.5,5.2-10.8,7.8-17.8,7.8c-14.8,0-28.3-8.6-28.3-34.4c0-28.3,15.2-36.2,30.9-36.2
		c5.8,0,10.7,1.4,14.7,3.7v-32.4c4.4-1.8,8.8-2.3,13.5-1.9v99.9c-2.3,0.5-5.5,0.8-9.3,1C1260.4,899.5,1258.9,896.8,1258.2,894
		 M1244.2,890.9c5.8,0,10.3-1.9,13.5-4.8v-41.6c-3.3-1.4-7.8-2.6-12.4-2.6c-8.6,0-19.4,3.2-19.4,24.7
		C1225.9,886.9,1234.7,890.9,1244.2,890.9"/>
	<path class="st0" d="M1329,893.5c-5.9,5.9-13,8.4-21.3,8.4c-12.2,0-22.1-4.9-22.1-18.8c0-11.7,7.1-16.2,18.7-19.4l24.2-6.7v-2.5
		c0-8.6-5.4-11.8-16.7-11.8c-6.2,0-13.9,1-22,4c-0.4-4.4-0.1-9.3,1.4-12.1c5.2-2.2,13.6-3.4,22.2-3.4c17.6,0,28.6,5.2,28.6,22.2
		v47.1c-2.3,0.5-5.9,0.8-10.2,1C1330.7,899.8,1329.7,896.5,1329,893.5 M1311.3,891.2c7.1,0,12.8-2.2,17.2-6v-17.8l-17.6,5.5
		c-7.1,2.2-11.5,3.7-11.5,10C1299.4,889.9,1305,891.2,1311.3,891.2"/>
	<path class="st0" d="M1398.5,832l18.7,53.4l19.1-53.1c4.7-1,9.5-0.6,14,0.8l-27.3,67.4h-11.5l-27.2-67
		C1388.9,831.9,1393.8,831.3,1398.5,832"/>
	<path class="st0" d="M1458.1,811.8c0-5.5,3.4-8.5,9.3-8.5c5.9,0,9.3,3,9.3,8.5c0,5.6-3.4,8.6-9.3,8.6
		C1461.5,820.5,1458.1,817.5,1458.1,811.8 M1474.1,831.9v68.6h-13.5v-66.9C1465.1,831.9,1469.3,831.5,1474.1,831.9"/>
	<path class="st0" d="M1535.2,894c-4.5,5.2-10.8,7.8-17.8,7.8c-14.8,0-28.3-8.6-28.3-34.4c0-28.3,15.2-36.2,30.9-36.2
		c5.8,0,10.7,1.4,14.7,3.7v-32.4c4.4-1.8,8.8-2.3,13.5-1.9v99.9c-2.3,0.5-5.5,0.8-9.3,1C1537.4,899.5,1535.9,896.8,1535.2,894
		 M1521.2,890.9c5.8,0,10.3-1.9,13.5-4.8v-41.6c-3.3-1.4-7.8-2.6-12.4-2.6c-8.6,0-19.4,3.2-19.4,24.7
		C1502.9,886.9,1511.7,890.9,1521.2,890.9"/>
	<path class="st0" d="M1606,893.5c-5.9,5.9-13,8.4-21.3,8.4c-12.2,0-22.1-4.9-22.1-18.8c0-11.7,7.1-16.2,18.7-19.4l24.2-6.7v-2.5
		c0-8.6-5.4-11.8-16.7-11.8c-6.2,0-13.9,1-22,4c-0.4-4.4-0.1-9.3,1.4-12.1c5.2-2.2,13.6-3.4,22.2-3.4c17.6,0,28.6,5.2,28.6,22.2
		v47.1c-2.3,0.5-5.9,0.8-10.2,1C1607.7,899.8,1606.7,896.5,1606,893.5 M1588.3,891.2c7.1,0,12.8-2.2,17.2-6v-17.8l-17.6,5.5
		c-7.1,2.2-11.5,3.7-11.5,10C1576.4,889.9,1582,891.2,1588.3,891.2"/>
</g>
</svg>
